G04*
G04 #@! TF.GenerationSoftware,Altium Limited,Altium Designer,20.0.13 (296)*
G04*
G04 Layer_Physical_Order=2*
G04 Layer_Color=16711680*
%FSLAX25Y25*%
%MOIN*%
G70*
G01*
G75*
%ADD11C,0.01000*%
%ADD41C,0.03000*%
%ADD42C,0.02500*%
%ADD43C,0.02000*%
%ADD46C,0.06496*%
%ADD47R,0.06000X0.06000*%
%ADD48C,0.06000*%
%ADD49R,0.05906X0.05906*%
%ADD50C,0.05906*%
%ADD51C,0.02000*%
%ADD52C,0.18898*%
%ADD53C,0.06653*%
%ADD54R,0.06653X0.06653*%
%ADD55R,0.06000X0.06000*%
%ADD56C,0.07000*%
%ADD57R,0.05000X0.05000*%
%ADD58C,0.05000*%
%ADD59C,0.05512*%
%ADD60C,0.05315*%
%ADD61R,0.05315X0.05315*%
%ADD62C,0.15748*%
%ADD63C,0.10000*%
%ADD64C,0.07874*%
%ADD65R,0.07874X0.07874*%
%ADD66R,0.05315X0.05315*%
%ADD67R,0.19967X0.10996*%
G36*
X245543Y182859D02*
Y168323D01*
X245393Y168098D01*
X245238Y167318D01*
X245345Y166781D01*
X245009Y166281D01*
X243716D01*
X241910Y168086D01*
X241908Y168098D01*
X241465Y168760D01*
X240804Y169202D01*
X240024Y169357D01*
X239243Y169202D01*
X238582Y168760D01*
X238140Y168098D01*
X237984Y167318D01*
X238007Y167203D01*
X237984Y167089D01*
X238122Y166397D01*
X237881Y166184D01*
X237710Y166102D01*
X235052Y168760D01*
X235052Y168760D01*
X234640Y169035D01*
X234391Y169202D01*
X233610Y169357D01*
X233610D01*
X232830Y169202D01*
X232539Y169008D01*
X232039Y169275D01*
Y173416D01*
X232039Y173416D01*
X231884Y174196D01*
X231442Y174857D01*
X227739Y178561D01*
X227946Y179061D01*
X235905D01*
X236685Y179216D01*
X237347Y179658D01*
X242071Y184382D01*
X243045Y184254D01*
X244020Y184382D01*
X245543Y182859D01*
D02*
G37*
G36*
X309002Y194090D02*
Y183213D01*
X300957D01*
X296904Y187266D01*
X297032Y188241D01*
X296896Y189273D01*
X296498Y190234D01*
X295865Y191060D01*
X295039Y191693D01*
X294077Y192092D01*
X293045Y192228D01*
X292014Y192092D01*
X291052Y191693D01*
X290226Y191060D01*
X289593Y190234D01*
X289194Y189273D01*
X289058Y188241D01*
X289194Y187209D01*
X289593Y186247D01*
X290226Y185422D01*
X291052Y184788D01*
X292014Y184390D01*
X293045Y184254D01*
X294020Y184382D01*
X298560Y179843D01*
X298670Y179714D01*
X298648Y179145D01*
X298318Y178652D01*
X298123Y177677D01*
X298315Y176701D01*
X298867Y175873D01*
X298946Y175794D01*
X298948Y175793D01*
X298949Y175792D01*
X299359Y175517D01*
X299773Y175240D01*
X299774Y175240D01*
X299776Y175239D01*
X300260Y175143D01*
X300693Y175056D01*
X300769Y174906D01*
X300817Y174545D01*
X299888Y173976D01*
X298638Y172908D01*
X297570Y171657D01*
X296710Y170255D01*
X296081Y168736D01*
X296047Y168594D01*
X266990D01*
X266782Y169094D01*
X282071Y184382D01*
X283045Y184254D01*
X284077Y184390D01*
X285039Y184788D01*
X285864Y185422D01*
X286498Y186247D01*
X286896Y187209D01*
X287032Y188241D01*
X286896Y189273D01*
X286498Y190234D01*
X285864Y191060D01*
X285039Y191693D01*
X284077Y192092D01*
X283045Y192228D01*
X282014Y192092D01*
X281052Y191693D01*
X280226Y191060D01*
X279593Y190234D01*
X279194Y189273D01*
X279059Y188241D01*
X279187Y187266D01*
X259114Y167193D01*
X258653Y167439D01*
X258739Y167874D01*
Y171051D01*
X272071Y184382D01*
X273045Y184254D01*
X274077Y184390D01*
X275039Y184788D01*
X275865Y185422D01*
X276498Y186247D01*
X276896Y187209D01*
X277032Y188241D01*
X276896Y189273D01*
X276498Y190234D01*
X275865Y191060D01*
X275039Y191693D01*
X274077Y192092D01*
X273045Y192228D01*
X272013Y192092D01*
X271052Y191693D01*
X270226Y191060D01*
X269593Y190234D01*
X269194Y189273D01*
X269058Y188241D01*
X269187Y187266D01*
X255585Y173664D01*
X255085Y173871D01*
Y184823D01*
X255865Y185422D01*
X256498Y186247D01*
X256896Y187209D01*
X257032Y188241D01*
X256896Y189273D01*
X256498Y190234D01*
X256176Y190654D01*
X256422Y191154D01*
X257248D01*
X259187Y189216D01*
X259058Y188241D01*
X259194Y187209D01*
X259593Y186247D01*
X260226Y185422D01*
X261052Y184788D01*
X262014Y184390D01*
X263045Y184254D01*
X264077Y184390D01*
X265039Y184788D01*
X265864Y185422D01*
X266498Y186247D01*
X266896Y187209D01*
X267032Y188241D01*
X266896Y189273D01*
X266498Y190234D01*
X265864Y191060D01*
X265039Y191693D01*
X264077Y192092D01*
X263045Y192228D01*
X262071Y192099D01*
X260129Y194041D01*
X260320Y194503D01*
X308574D01*
X309002Y194090D01*
D02*
G37*
G36*
X229093Y184288D02*
X235556D01*
X235747Y183826D01*
X235060Y183139D01*
X228245D01*
X221142Y190242D01*
X220916Y190393D01*
X220792Y191072D01*
X220850Y191154D01*
X229093D01*
Y184288D01*
D02*
G37*
G36*
X227961Y172571D02*
Y171497D01*
X227499Y171306D01*
X216602Y182202D01*
X215775Y182755D01*
X214800Y182949D01*
X213825Y182755D01*
X212998Y182202D01*
X212445Y181376D01*
X212251Y180400D01*
X212445Y179425D01*
X212998Y178598D01*
X223739Y167857D01*
X223704Y167597D01*
X223171Y167376D01*
X223017Y167494D01*
X222044Y167897D01*
X221000Y168035D01*
X220302Y167943D01*
X211744Y176500D01*
Y180053D01*
X211569Y180931D01*
X211072Y181676D01*
X209449Y183299D01*
X209640Y183761D01*
X216771D01*
X227961Y172571D01*
D02*
G37*
G36*
X249915Y190654D02*
X249593Y190234D01*
X249194Y189273D01*
X249059Y188241D01*
X249194Y187209D01*
X249593Y186247D01*
X250226Y185422D01*
X251006Y184823D01*
Y169307D01*
X250083Y168384D01*
X249622Y168575D01*
Y183704D01*
X249466Y184484D01*
X249024Y185146D01*
X246904Y187266D01*
X247032Y188241D01*
X246896Y189273D01*
X246498Y190234D01*
X246176Y190654D01*
X246422Y191154D01*
X249669D01*
X249915Y190654D01*
D02*
G37*
G36*
X147108Y191072D02*
X146984Y190393D01*
X146758Y190242D01*
X134108Y177592D01*
X133666Y176930D01*
X133511Y176150D01*
X133666Y175370D01*
X134108Y174708D01*
X134770Y174266D01*
X135097Y174201D01*
X135262Y173658D01*
X127927Y166324D01*
X127465Y166515D01*
Y185855D01*
X132764Y191154D01*
X147050D01*
X147108Y191072D01*
D02*
G37*
G36*
X184250Y174844D02*
X184160Y174392D01*
Y172044D01*
X175616Y163500D01*
X171500D01*
Y156500D01*
X178500D01*
Y160616D01*
X182830Y164946D01*
X183291Y164700D01*
X183141Y163947D01*
Y160634D01*
X183335Y159658D01*
X183851Y158886D01*
Y146200D01*
X184045Y145224D01*
X184105Y145135D01*
X183869Y144694D01*
X182350D01*
X180422Y146622D01*
X179678Y147119D01*
X178800Y147294D01*
X177966D01*
X177719Y147794D01*
X178057Y148235D01*
X178410Y149086D01*
X178530Y150000D01*
X178410Y150914D01*
X178057Y151765D01*
X177496Y152496D01*
X176765Y153057D01*
X175914Y153410D01*
X175000Y153530D01*
X174086Y153410D01*
X173235Y153057D01*
X172504Y152496D01*
X171943Y151765D01*
X171590Y150914D01*
X171470Y150000D01*
X171590Y149086D01*
X171943Y148235D01*
X172281Y147794D01*
X172034Y147294D01*
X172000D01*
X171122Y147119D01*
X170378Y146622D01*
X161698Y137943D01*
X161500Y137969D01*
Y134500D01*
X164969D01*
X164943Y134698D01*
X171075Y140831D01*
X171548Y140597D01*
X171470Y140000D01*
X171590Y139086D01*
X171943Y138235D01*
X172504Y137504D01*
X173235Y136943D01*
X174086Y136590D01*
X175000Y136470D01*
X175571Y136545D01*
X178332Y133784D01*
X178332Y133784D01*
X178994Y133342D01*
X179774Y133187D01*
X179774Y133187D01*
X202442D01*
X202624Y132704D01*
X202375Y132417D01*
X187065D01*
X186400Y132549D01*
X185424Y132355D01*
X184598Y131802D01*
X184045Y130975D01*
X183851Y130000D01*
X184045Y129025D01*
X184598Y128198D01*
X184730Y128065D01*
X185557Y127513D01*
X186479Y127329D01*
X186537Y127142D01*
X186546Y126819D01*
X185878Y126372D01*
X185380Y125628D01*
X185206Y124750D01*
X185380Y123872D01*
X185878Y123128D01*
X186622Y122631D01*
X187081Y122539D01*
X187032Y122039D01*
X177847D01*
X177496Y122496D01*
X176765Y123057D01*
X175914Y123410D01*
X175000Y123530D01*
X174086Y123410D01*
X173235Y123057D01*
X172504Y122496D01*
X171943Y121765D01*
X171590Y120914D01*
X171470Y120000D01*
X171590Y119086D01*
X171943Y118235D01*
X172125Y117997D01*
X171904Y117549D01*
X171000D01*
X170025Y117355D01*
X169198Y116802D01*
X168944Y116549D01*
X164086D01*
X163853Y116853D01*
X163017Y117494D01*
X162044Y117897D01*
X161000Y118035D01*
X159956Y117897D01*
X158983Y117494D01*
X158147Y116853D01*
X157506Y116017D01*
X157103Y115044D01*
X156965Y114000D01*
X157103Y112956D01*
X157506Y111983D01*
X157846Y111539D01*
X157600Y111039D01*
X156000D01*
X156000Y111039D01*
X155220Y110884D01*
X154558Y110442D01*
X150034Y105918D01*
X54563D01*
X54394Y106418D01*
X54783Y106717D01*
X55575Y107748D01*
X56072Y108949D01*
X56242Y110238D01*
X56072Y111527D01*
X55575Y112728D01*
X54783Y113759D01*
X54329Y114107D01*
X54499Y114607D01*
X120227D01*
X121203Y114801D01*
X122030Y115354D01*
X129002Y122327D01*
X129555Y123153D01*
X129749Y124129D01*
Y129760D01*
X130249Y129930D01*
X130337Y129815D01*
X131102Y129229D01*
X131991Y128860D01*
X132946Y128734D01*
X133901Y128860D01*
X134791Y129229D01*
X135555Y129815D01*
X136141Y130579D01*
X136509Y131469D01*
X136635Y132423D01*
X136509Y133378D01*
X136141Y134268D01*
X135555Y135032D01*
X134791Y135618D01*
X133901Y135987D01*
X132946Y136112D01*
X131991Y135987D01*
X131102Y135618D01*
X130337Y135032D01*
X130249Y134917D01*
X129749Y135086D01*
Y138944D01*
X156538Y165733D01*
X157000Y165542D01*
Y160000D01*
X165000D01*
Y168000D01*
X159458D01*
X159267Y168462D01*
X166148Y175344D01*
X183874D01*
X184250Y174844D01*
D02*
G37*
G36*
X159073Y183299D02*
X131131Y155357D01*
X130708Y155641D01*
X130839Y156300D01*
Y163468D01*
X151132Y183761D01*
X158881D01*
X159073Y183299D01*
D02*
G37*
G36*
X306549Y155055D02*
X307689Y155145D01*
X309288Y155529D01*
X310807Y156158D01*
X312210Y157017D01*
X313460Y158086D01*
X314529Y159336D01*
X314951Y160026D01*
X315451Y159884D01*
Y109006D01*
X306094Y99650D01*
X305226Y99913D01*
X304049Y100029D01*
X302873Y99913D01*
X301742Y99570D01*
X300700Y99013D01*
X299786Y98263D01*
X299036Y97350D01*
X298479Y96307D01*
X298136Y95176D01*
X298020Y94000D01*
X298136Y92824D01*
X298479Y91693D01*
X299036Y90650D01*
X299786Y89737D01*
X300700Y88987D01*
X301742Y88430D01*
X302041Y88339D01*
X301967Y87839D01*
X295745D01*
X289042Y94542D01*
X288380Y94984D01*
X287600Y95139D01*
X286310D01*
X286246Y95262D01*
X286178Y95639D01*
X286871Y96171D01*
X287473Y96955D01*
X287851Y97869D01*
X287980Y98849D01*
X287851Y99830D01*
X287473Y100744D01*
X286871Y101528D01*
X286086Y102130D01*
X285173Y102509D01*
X284192Y102638D01*
X283711Y102574D01*
X264223Y122062D01*
X263479Y122560D01*
X262601Y122734D01*
X247702D01*
X247692Y122751D01*
X247970Y123251D01*
X278756D01*
X279732Y123445D01*
X280559Y123998D01*
X284030Y127469D01*
X284192Y127447D01*
X285173Y127576D01*
X286086Y127955D01*
X286871Y128557D01*
X287473Y129341D01*
X287851Y130255D01*
X287980Y131236D01*
X287851Y132216D01*
X287473Y133130D01*
X286871Y133914D01*
X286086Y134516D01*
X285173Y134895D01*
X284192Y135024D01*
X283211Y134895D01*
X282298Y134516D01*
X281513Y133914D01*
X280911Y133130D01*
X280533Y132216D01*
X280404Y131236D01*
X280425Y131073D01*
X277701Y128349D01*
X247341D01*
X247095Y128849D01*
X247473Y129341D01*
X247851Y130255D01*
X247980Y131236D01*
X247851Y132216D01*
X247473Y133130D01*
X246871Y133914D01*
X246086Y134516D01*
X245173Y134895D01*
X244192Y135024D01*
X243212Y134895D01*
X242298Y134516D01*
X241513Y133914D01*
X240911Y133130D01*
X240533Y132216D01*
X240404Y131236D01*
X240533Y130255D01*
X240911Y129341D01*
X241289Y128849D01*
X241042Y128349D01*
X238500D01*
X237525Y128155D01*
X236698Y127602D01*
X230898Y121802D01*
X230345Y120975D01*
X230151Y120000D01*
Y116756D01*
X224288Y110892D01*
X223911Y111223D01*
X224494Y111983D01*
X224897Y112956D01*
X225034Y114000D01*
X224897Y115044D01*
X224494Y116017D01*
X223853Y116853D01*
X223017Y117494D01*
X222044Y117897D01*
X221000Y118035D01*
X219956Y117897D01*
X218983Y117494D01*
X218147Y116853D01*
X217523Y116039D01*
X208160D01*
X207644Y116384D01*
X206990Y116514D01*
X206950Y116590D01*
X206876Y116894D01*
X206881Y117032D01*
X207496Y117504D01*
X208057Y118235D01*
X208410Y119086D01*
X208530Y120000D01*
X208410Y120914D01*
X208057Y121765D01*
X207871Y122008D01*
X208092Y122456D01*
X211750D01*
X212628Y122631D01*
X213372Y123128D01*
X220302Y130057D01*
X221000Y129965D01*
X222044Y130103D01*
X223017Y130506D01*
X223853Y131147D01*
X224494Y131983D01*
X224897Y132956D01*
X225034Y134000D01*
X224943Y134698D01*
X226750Y136506D01*
X283946D01*
X284824Y136680D01*
X285568Y137178D01*
X295234Y146843D01*
X295627Y146791D01*
X296581Y146917D01*
X297471Y147286D01*
X298235Y147872D01*
X298821Y148636D01*
X299190Y149526D01*
X299233Y149856D01*
X299761Y150035D01*
X309051Y140745D01*
Y131105D01*
X308580Y130937D01*
X308313Y131263D01*
X307399Y132013D01*
X306357Y132570D01*
X305226Y132913D01*
X304049Y133029D01*
X302873Y132913D01*
X301742Y132570D01*
X300700Y132013D01*
X299786Y131263D01*
X299036Y130350D01*
X298479Y129307D01*
X298136Y128176D01*
X298020Y127000D01*
X298136Y125824D01*
X298479Y124693D01*
X299036Y123651D01*
X299786Y122737D01*
X300700Y121987D01*
X301742Y121430D01*
X302873Y121087D01*
X304049Y120971D01*
X305226Y121087D01*
X306357Y121430D01*
X307399Y121987D01*
X308313Y122737D01*
X308580Y123063D01*
X309051Y122895D01*
Y119106D01*
X306094Y116150D01*
X305226Y116413D01*
X304049Y116529D01*
X302873Y116413D01*
X301742Y116070D01*
X300700Y115513D01*
X299786Y114763D01*
X299036Y113849D01*
X298479Y112807D01*
X298136Y111676D01*
X298020Y110500D01*
X298136Y109324D01*
X298479Y108193D01*
X299036Y107150D01*
X299786Y106237D01*
X300700Y105487D01*
X301742Y104930D01*
X302873Y104587D01*
X304049Y104471D01*
X305226Y104587D01*
X306357Y104930D01*
X307399Y105487D01*
X308313Y106237D01*
X309062Y107150D01*
X309619Y108193D01*
X309963Y109324D01*
X310078Y110500D01*
X309963Y111676D01*
X309699Y112545D01*
X313402Y116248D01*
X313955Y117075D01*
X314149Y118051D01*
Y141801D01*
X313955Y142776D01*
X313402Y143603D01*
X301458Y155547D01*
X301742Y155971D01*
X302810Y155529D01*
X304410Y155145D01*
X305549Y155055D01*
Y165497D01*
X306549D01*
Y155055D01*
D02*
G37*
G36*
X203530Y179753D02*
X203345Y179475D01*
X203151Y178500D01*
Y172553D01*
X203345Y171577D01*
X203898Y170750D01*
X210177Y164470D01*
X211004Y163918D01*
X211980Y163724D01*
X212955Y163918D01*
X213782Y164470D01*
X214335Y165297D01*
X214529Y166273D01*
X214467Y166581D01*
X214928Y166828D01*
X217057Y164698D01*
X216966Y164000D01*
X217103Y162956D01*
X217506Y161983D01*
X218147Y161147D01*
X218983Y160506D01*
X219956Y160103D01*
X221000Y159966D01*
X222044Y160103D01*
X223017Y160506D01*
X223728Y161051D01*
X224182Y161047D01*
X224364Y160992D01*
X224698Y160493D01*
X233071Y152120D01*
X233898Y151567D01*
X234873Y151373D01*
X237582D01*
X238558Y151567D01*
X239385Y152120D01*
X239937Y152947D01*
X240131Y153922D01*
X239937Y154897D01*
X239604Y155396D01*
X239871Y155896D01*
X257470D01*
X257617Y155396D01*
X253528Y152775D01*
X250547D01*
Y154138D01*
X247389D01*
Y150480D01*
Y146736D01*
X250247Y143878D01*
X250992Y143380D01*
X251870Y143206D01*
X270961D01*
X271839Y143380D01*
X272583Y143878D01*
X275442Y146736D01*
Y149980D01*
X272197D01*
X270204Y147987D01*
X269928Y148022D01*
X269707Y148554D01*
X269769Y148636D01*
X270138Y149526D01*
X270263Y150480D01*
X270138Y151435D01*
X269769Y152325D01*
X269183Y153089D01*
X268419Y153675D01*
X267529Y154044D01*
X266574Y154169D01*
X265619Y154044D01*
X264730Y153675D01*
X263966Y153089D01*
X263379Y152325D01*
X263011Y151435D01*
X262885Y150480D01*
X263011Y149526D01*
X263379Y148636D01*
X263642Y148294D01*
X263395Y147794D01*
X254882D01*
X254788Y148294D01*
X254835Y148313D01*
X255078Y148361D01*
X255248Y148475D01*
X255438Y148549D01*
X264285Y154222D01*
X264463Y154393D01*
X264669Y154531D01*
X264783Y154701D01*
X264930Y154843D01*
X265029Y155069D01*
X265166Y155275D01*
X265206Y155476D01*
X265288Y155663D01*
X265293Y155910D01*
X265341Y156153D01*
Y161697D01*
X267518Y163874D01*
X267792Y163845D01*
X267891Y163741D01*
X268120Y163348D01*
X267951Y162500D01*
X268145Y161524D01*
X268698Y160698D01*
X269525Y160145D01*
X270500Y159951D01*
X289845D01*
X295181Y154615D01*
X295002Y154087D01*
X294672Y154044D01*
X293782Y153675D01*
X293018Y153089D01*
X292432Y152325D01*
X292063Y151435D01*
X291938Y150480D01*
X291989Y150087D01*
X282996Y141094D01*
X225800D01*
X224922Y140919D01*
X224178Y140422D01*
X221698Y137943D01*
X221000Y138034D01*
X219956Y137897D01*
X218983Y137494D01*
X218147Y136853D01*
X217506Y136017D01*
X217103Y135044D01*
X216966Y134000D01*
X217057Y133302D01*
X210800Y127044D01*
X207652D01*
X207586Y127238D01*
X207527Y127544D01*
X208057Y128235D01*
X208410Y129086D01*
X208530Y130000D01*
X208410Y130914D01*
X208057Y131765D01*
X207496Y132496D01*
X207248Y132687D01*
X207418Y133187D01*
X209146D01*
X209926Y133342D01*
X210588Y133784D01*
X211409Y134605D01*
X214062D01*
X214843Y134761D01*
X215504Y135203D01*
X215946Y135864D01*
X216101Y136645D01*
X215946Y137425D01*
X215504Y138086D01*
X214843Y138529D01*
X214062Y138684D01*
X210564D01*
X209784Y138529D01*
X209122Y138086D01*
X208400Y137364D01*
X208001Y137408D01*
X207785Y137880D01*
X208057Y138235D01*
X208410Y139086D01*
X208530Y140000D01*
X208410Y140914D01*
X208057Y141765D01*
X207873Y142006D01*
X208119Y142506D01*
X211800D01*
X212678Y142681D01*
X213422Y143178D01*
X220302Y150057D01*
X220500Y150031D01*
Y153500D01*
X217031D01*
X217057Y153302D01*
X210850Y147094D01*
X207711D01*
X207565Y147594D01*
X208057Y148235D01*
X208410Y149086D01*
X208530Y150000D01*
X208410Y150914D01*
X208057Y151765D01*
X207496Y152496D01*
X206765Y153057D01*
X205914Y153410D01*
X205086Y153519D01*
X194512Y164093D01*
X193685Y164645D01*
X192710Y164839D01*
X190840D01*
X190649Y165301D01*
X191502Y166154D01*
X192054Y166981D01*
X192248Y167956D01*
Y175842D01*
X192054Y176818D01*
X191502Y177645D01*
X189453Y179693D01*
X189453Y179821D01*
X189566Y180193D01*
X203294D01*
X203530Y179753D01*
D02*
G37*
G36*
X163288Y179821D02*
X163289Y179693D01*
X125398Y141802D01*
X124845Y140975D01*
X124651Y140000D01*
Y126283D01*
X124168Y126196D01*
X123740Y127229D01*
X123059Y128117D01*
X122171Y128798D01*
X121138Y129226D01*
X120029Y129372D01*
X118920Y129226D01*
X117887Y128798D01*
X116999Y128117D01*
X116435Y127381D01*
X106845D01*
X84000Y150226D01*
Y154261D01*
X116000D01*
Y146982D01*
X124000D01*
Y148688D01*
X130000D01*
X130878Y148862D01*
X131622Y149360D01*
X162456Y180193D01*
X163175D01*
X163288Y179821D01*
D02*
G37*
G36*
X189690Y159741D02*
X191654D01*
X201481Y149914D01*
X201590Y149086D01*
X201943Y148235D01*
X202434Y147594D01*
X202290Y147094D01*
X198600D01*
X197722Y146920D01*
X196978Y146422D01*
X195250Y144694D01*
X188931D01*
X188695Y145135D01*
X188755Y145224D01*
X188949Y146200D01*
Y159495D01*
X189336Y159812D01*
X189690Y159741D01*
D02*
G37*
G36*
X202128Y142006D02*
X201943Y141765D01*
X201590Y140914D01*
X201470Y140000D01*
X201590Y139086D01*
X201943Y138235D01*
X202303Y137765D01*
X202057Y137265D01*
X180619D01*
X178455Y139429D01*
X178530Y140000D01*
X178410Y140914D01*
X178057Y141765D01*
X177971Y141878D01*
X178348Y142208D01*
X179778Y140778D01*
X180522Y140280D01*
X181400Y140106D01*
X196200D01*
X197078Y140280D01*
X197822Y140778D01*
X199550Y142506D01*
X201881D01*
X202128Y142006D01*
D02*
G37*
G36*
X76000Y146982D02*
X80756D01*
X104272Y123465D01*
X105017Y122968D01*
X105895Y122793D01*
X116435D01*
X116999Y122057D01*
X117887Y121377D01*
X118920Y120949D01*
X119616Y120857D01*
X119795Y120329D01*
X119171Y119705D01*
X41511D01*
X40535Y119511D01*
X39708Y118959D01*
X39156Y118132D01*
X38962Y117156D01*
X39156Y116181D01*
X39708Y115354D01*
X40535Y114801D01*
X41511Y114607D01*
X48025D01*
X48195Y114107D01*
X47741Y113759D01*
X46950Y112728D01*
X46452Y111527D01*
X46283Y110238D01*
X46452Y108949D01*
X46950Y107748D01*
X47741Y106717D01*
X48131Y106418D01*
X47961Y105918D01*
X37767D01*
X37543Y106142D01*
X36881Y106584D01*
X36101Y106739D01*
X34689D01*
X34442Y107239D01*
X34972Y107929D01*
X35408Y108982D01*
X35491Y109611D01*
X31192D01*
X26894D01*
X26977Y108982D01*
X27413Y107929D01*
X27942Y107239D01*
X27696Y106739D01*
X25600D01*
X24820Y106584D01*
X24521Y106384D01*
X23902Y106572D01*
X23790Y106840D01*
X23097Y107744D01*
X22193Y108438D01*
X21140Y108874D01*
X20011Y109022D01*
X18881Y108874D01*
X17829Y108438D01*
X17139Y107908D01*
X16639Y108155D01*
Y112067D01*
X17139Y112314D01*
X17829Y111785D01*
X18881Y111349D01*
X20011Y111200D01*
X21140Y111349D01*
X22193Y111785D01*
X23097Y112478D01*
X23790Y113382D01*
X24226Y114435D01*
X24375Y115564D01*
X24226Y116693D01*
X23790Y117746D01*
X23097Y118650D01*
X22193Y119343D01*
X21140Y119779D01*
X20011Y119928D01*
X18881Y119779D01*
X17829Y119343D01*
X17139Y118814D01*
X16639Y119061D01*
Y122973D01*
X17139Y123219D01*
X17829Y122690D01*
X18881Y122254D01*
X20011Y122105D01*
X21140Y122254D01*
X22193Y122690D01*
X23097Y123383D01*
X23790Y124287D01*
X24226Y125340D01*
X24375Y126469D01*
X24226Y127599D01*
X23790Y128651D01*
X23097Y129555D01*
X22193Y130249D01*
X21140Y130685D01*
X20011Y130833D01*
X18881Y130685D01*
X17829Y130249D01*
X17139Y129719D01*
X16639Y129966D01*
Y140555D01*
X19845Y143761D01*
X46100D01*
X46880Y143916D01*
X47542Y144358D01*
X57445Y154261D01*
X76000D01*
Y146982D01*
D02*
G37*
G36*
X202129Y122008D02*
X201943Y121765D01*
X201590Y120914D01*
X201470Y120000D01*
X201590Y119086D01*
X201943Y118235D01*
X202504Y117504D01*
X203109Y117039D01*
X202956Y116539D01*
X193845D01*
X188942Y121442D01*
X188280Y121884D01*
X187919Y121956D01*
X187968Y122456D01*
X201908D01*
X202129Y122008D01*
D02*
G37*
G36*
X187498Y108198D02*
X188324Y107645D01*
X189300Y107451D01*
X202572D01*
X203235Y106943D01*
X204086Y106590D01*
X205000Y106470D01*
X205914Y106590D01*
X206765Y106943D01*
X207496Y107504D01*
X208057Y108235D01*
X208410Y109086D01*
X208530Y110000D01*
X208410Y110914D01*
X208183Y111461D01*
X208515Y111961D01*
X217523D01*
X218147Y111147D01*
X218983Y110506D01*
X219956Y110103D01*
X221000Y109966D01*
X222044Y110103D01*
X223017Y110506D01*
X223777Y111089D01*
X224108Y110712D01*
X221380Y107984D01*
X221000Y108035D01*
X219956Y107897D01*
X218983Y107494D01*
X218147Y106853D01*
X217914Y106549D01*
X209000D01*
X208025Y106355D01*
X207198Y105802D01*
X204914Y103519D01*
X204086Y103410D01*
X203235Y103057D01*
X202504Y102496D01*
X201943Y101765D01*
X201590Y100914D01*
X201470Y100000D01*
X201590Y99086D01*
X201943Y98235D01*
X202477Y97539D01*
X202430Y97287D01*
X202346Y97039D01*
X177654D01*
X177570Y97287D01*
X177523Y97539D01*
X178057Y98235D01*
X178410Y99086D01*
X178530Y100000D01*
X178410Y100914D01*
X178057Y101765D01*
X177496Y102496D01*
X176765Y103057D01*
X175914Y103410D01*
X175000Y103530D01*
X174086Y103410D01*
X173235Y103057D01*
X172504Y102496D01*
X172153Y102039D01*
X170100D01*
X169320Y101884D01*
X168658Y101442D01*
X168255Y101039D01*
X164400D01*
X164154Y101539D01*
X164494Y101983D01*
X164897Y102956D01*
X165034Y104000D01*
X164897Y105044D01*
X164494Y106017D01*
X164154Y106461D01*
X164400Y106961D01*
X169500D01*
X170280Y107116D01*
X170942Y107558D01*
X171345Y107961D01*
X172153D01*
X172504Y107504D01*
X173235Y106943D01*
X174086Y106590D01*
X175000Y106470D01*
X175914Y106590D01*
X176765Y106943D01*
X177496Y107504D01*
X178057Y108235D01*
X178410Y109086D01*
X178530Y110000D01*
X178410Y110914D01*
X178057Y111765D01*
X177875Y112003D01*
X178096Y112451D01*
X183244D01*
X187498Y108198D01*
D02*
G37*
G36*
X157846Y106461D02*
X157506Y106017D01*
X157103Y105044D01*
X156965Y104000D01*
X157103Y102956D01*
X157506Y101983D01*
X157846Y101539D01*
X157600Y101039D01*
X111800D01*
X111019Y100884D01*
X110358Y100442D01*
X110358Y100442D01*
X91955Y82039D01*
X88200D01*
X87954Y82539D01*
X88294Y82983D01*
X88697Y83956D01*
X88769Y84500D01*
X84800D01*
X80831D01*
X80903Y83956D01*
X81306Y82983D01*
X81646Y82539D01*
X81400Y82039D01*
X57693D01*
X57670Y82054D01*
X56890Y82210D01*
X56110Y82054D01*
X55448Y81612D01*
X55006Y80951D01*
X54916Y80496D01*
X54373Y80332D01*
X52549Y82156D01*
Y91320D01*
X52355Y92295D01*
X51802Y93122D01*
X50045Y94880D01*
X49218Y95432D01*
X48243Y95626D01*
X37502D01*
X36527Y95432D01*
X35699Y94880D01*
X35147Y94053D01*
X34953Y93077D01*
X35147Y92102D01*
X35699Y91275D01*
X36527Y90722D01*
X37502Y90528D01*
X47187D01*
X47451Y90264D01*
Y87771D01*
X46988Y87634D01*
X46951Y87641D01*
X46523Y88282D01*
X45861Y88724D01*
X45081Y88880D01*
X44300Y88724D01*
X43639Y88282D01*
X43197Y87621D01*
X43042Y86840D01*
Y69657D01*
X42542Y69505D01*
X42250Y69941D01*
X35468Y76724D01*
X35556Y77395D01*
X35408Y78524D01*
X34972Y79577D01*
X34278Y80480D01*
X33374Y81174D01*
X32322Y81610D01*
X31192Y81759D01*
X30063Y81610D01*
X29010Y81174D01*
X28139Y80506D01*
X27912Y80546D01*
X27639Y80639D01*
Y85056D01*
X27912Y85149D01*
X28139Y85189D01*
X29010Y84521D01*
X30063Y84085D01*
X31192Y83936D01*
X32322Y84085D01*
X33374Y84521D01*
X34278Y85214D01*
X34972Y86118D01*
X35408Y87171D01*
X35556Y88300D01*
X35408Y89430D01*
X34972Y90482D01*
X34278Y91386D01*
X33374Y92080D01*
X32322Y92516D01*
X31192Y92664D01*
X30063Y92516D01*
X29010Y92080D01*
X28139Y91411D01*
X27912Y91452D01*
X27639Y91545D01*
Y95961D01*
X27912Y96054D01*
X28139Y96095D01*
X29010Y95426D01*
X30063Y94990D01*
X31192Y94842D01*
X32322Y94990D01*
X33374Y95426D01*
X34278Y96120D01*
X34972Y97024D01*
X35408Y98076D01*
X35556Y99206D01*
X35408Y100335D01*
X34972Y101388D01*
X34378Y102161D01*
X34563Y102661D01*
X35256D01*
X35480Y102436D01*
X36142Y101994D01*
X36922Y101839D01*
X150878D01*
X151659Y101994D01*
X152320Y102436D01*
X156845Y106961D01*
X157600D01*
X157846Y106461D01*
D02*
G37*
G36*
X241231Y122751D02*
X240911Y122334D01*
X240533Y121421D01*
X240404Y120440D01*
X240533Y119460D01*
X240911Y118546D01*
X241513Y117762D01*
X242298Y117159D01*
X243212Y116781D01*
X244192Y116652D01*
X245173Y116781D01*
X246086Y117159D01*
X246871Y117762D01*
X247166Y118146D01*
X261651D01*
X280467Y99330D01*
X280404Y98849D01*
X280533Y97869D01*
X280911Y96955D01*
X281513Y96171D01*
X282206Y95639D01*
X282138Y95262D01*
X282074Y95139D01*
X246310D01*
X246246Y95262D01*
X246178Y95639D01*
X246871Y96171D01*
X247473Y96955D01*
X247851Y97869D01*
X247980Y98849D01*
X247851Y99830D01*
X247473Y100744D01*
X246871Y101528D01*
X246086Y102130D01*
X245173Y102509D01*
X244192Y102638D01*
X243212Y102509D01*
X242298Y102130D01*
X241513Y101528D01*
X241022Y100889D01*
X235357D01*
X234600Y101039D01*
X224400D01*
X224154Y101539D01*
X224494Y101983D01*
X224897Y102956D01*
X225034Y104000D01*
X224985Y104380D01*
X234502Y113898D01*
X235055Y114725D01*
X235249Y115700D01*
Y118944D01*
X239556Y123251D01*
X240984D01*
X241231Y122751D01*
D02*
G37*
G36*
X234751Y96810D02*
X241022D01*
X241513Y96171D01*
X242206Y95639D01*
X242138Y95262D01*
X242074Y95139D01*
X236970D01*
X236189Y94984D01*
X235528Y94542D01*
X225429Y84443D01*
X224955Y84604D01*
X224897Y85044D01*
X224494Y86017D01*
X223853Y86853D01*
X223017Y87494D01*
X222044Y87897D01*
X221000Y88034D01*
X219956Y87897D01*
X218983Y87494D01*
X218147Y86853D01*
X217600Y86139D01*
X206132D01*
X206032Y86639D01*
X206765Y86943D01*
X207496Y87504D01*
X208057Y88235D01*
X208410Y89086D01*
X208530Y90000D01*
X208410Y90914D01*
X208057Y91765D01*
X207523Y92461D01*
X207570Y92713D01*
X207654Y92961D01*
X212000D01*
X212780Y93116D01*
X213442Y93558D01*
X216845Y96961D01*
X217600D01*
X217846Y96461D01*
X217506Y96017D01*
X217103Y95044D01*
X216966Y94000D01*
X217103Y92956D01*
X217506Y91983D01*
X218147Y91147D01*
X218983Y90506D01*
X219956Y90103D01*
X221000Y89965D01*
X222044Y90103D01*
X223017Y90506D01*
X223853Y91147D01*
X224494Y91983D01*
X224897Y92956D01*
X225034Y94000D01*
X224897Y95044D01*
X224494Y96017D01*
X224154Y96461D01*
X224400Y96961D01*
X233994D01*
X234751Y96810D01*
D02*
G37*
G36*
X319461Y105153D02*
Y98145D01*
X309155Y87839D01*
X306132D01*
X306058Y88339D01*
X306357Y88430D01*
X307399Y88987D01*
X308313Y89737D01*
X309062Y90650D01*
X309619Y91693D01*
X309963Y92824D01*
X310078Y94000D01*
X309963Y95176D01*
X309699Y96045D01*
X318999Y105345D01*
X319461Y105153D01*
D02*
G37*
G36*
X202430Y92713D02*
X202477Y92461D01*
X201943Y91765D01*
X201590Y90914D01*
X201470Y90000D01*
X201590Y89086D01*
X201943Y88235D01*
X202504Y87504D01*
X203235Y86943D01*
X203968Y86639D01*
X203868Y86139D01*
X183900D01*
X183120Y85984D01*
X182458Y85542D01*
X182016Y84880D01*
X181861Y84100D01*
X182016Y83320D01*
X182458Y82658D01*
X183120Y82216D01*
X183900Y82061D01*
X217474D01*
X217506Y81983D01*
X217846Y81539D01*
X217600Y81039D01*
X179545D01*
X174560Y86023D01*
X174794Y86497D01*
X175000Y86470D01*
X175914Y86590D01*
X176765Y86943D01*
X177496Y87504D01*
X178057Y88235D01*
X178410Y89086D01*
X178464Y89500D01*
X175000D01*
Y90500D01*
X178464D01*
X178410Y90914D01*
X178057Y91765D01*
X177523Y92461D01*
X177570Y92713D01*
X177654Y92961D01*
X202346D01*
X202430Y92713D01*
D02*
G37*
G36*
X281382Y90561D02*
X280911Y89948D01*
X280533Y89034D01*
X280404Y88054D01*
X280533Y87073D01*
X280911Y86160D01*
X281513Y85375D01*
X282298Y84773D01*
X283211Y84395D01*
X284192Y84266D01*
X285173Y84395D01*
X286086Y84773D01*
X286871Y85375D01*
X287473Y86160D01*
X287851Y87073D01*
X287980Y88054D01*
X287851Y89034D01*
X287693Y89416D01*
X288117Y89699D01*
X293458Y84358D01*
X294120Y83916D01*
X294900Y83761D01*
X302297D01*
X302371Y83261D01*
X301742Y83070D01*
X300700Y82513D01*
X299786Y81763D01*
X299036Y80849D01*
X298608Y80049D01*
X292400D01*
X291424Y79855D01*
X290598Y79302D01*
X288424Y77129D01*
X287965Y77377D01*
X287851Y78239D01*
X287473Y79153D01*
X286871Y79937D01*
X286086Y80539D01*
X285173Y80918D01*
X284192Y81047D01*
X283211Y80918D01*
X282298Y80539D01*
X281513Y79937D01*
X280911Y79153D01*
X280533Y78239D01*
X280404Y77258D01*
X280533Y76278D01*
X280911Y75364D01*
X281153Y75049D01*
X280907Y74549D01*
X277156D01*
X267002Y84702D01*
X266176Y85255D01*
X265200Y85449D01*
X248600D01*
X247624Y85255D01*
X246936Y84795D01*
X246644Y85201D01*
X246871Y85375D01*
X247473Y86160D01*
X247851Y87073D01*
X247980Y88054D01*
X247851Y89034D01*
X247473Y89948D01*
X247003Y90561D01*
X247226Y91061D01*
X281158D01*
X281382Y90561D01*
D02*
G37*
G36*
X177258Y77558D02*
X177258Y77558D01*
X177894Y77133D01*
X177901Y77096D01*
X177699Y76633D01*
X171251D01*
X164901Y82983D01*
X165034Y84000D01*
X164897Y85044D01*
X164494Y86017D01*
X164154Y86461D01*
X164400Y86961D01*
X167855D01*
X177258Y77558D01*
D02*
G37*
G36*
X241382Y90561D02*
X240911Y89948D01*
X240533Y89034D01*
X240404Y88054D01*
X240509Y87255D01*
X224752Y71498D01*
X224375Y71828D01*
X224494Y71983D01*
X224897Y72956D01*
X225034Y74000D01*
X224897Y75044D01*
X224494Y76017D01*
X224154Y76461D01*
X224400Y76961D01*
X226000D01*
X226780Y77116D01*
X227442Y77558D01*
X227884Y78220D01*
X228039Y79000D01*
Y81286D01*
X237814Y91061D01*
X241158D01*
X241382Y90561D01*
D02*
G37*
G36*
X324044Y125260D02*
X324551Y123588D01*
X325375Y122046D01*
X326484Y120695D01*
X327836Y119586D01*
X329377Y118762D01*
X331050Y118254D01*
X332790Y118083D01*
X334529Y118254D01*
X336202Y118762D01*
X337744Y119586D01*
X339095Y120695D01*
X340161Y121994D01*
X340500Y121972D01*
X340661Y121932D01*
Y91245D01*
X320655Y71239D01*
X305802D01*
X305728Y71739D01*
X306357Y71930D01*
X307399Y72487D01*
X308313Y73237D01*
X309062Y74151D01*
X309619Y75193D01*
X309963Y76324D01*
X310078Y77500D01*
X309963Y78676D01*
X309619Y79807D01*
X309062Y80849D01*
X308313Y81763D01*
X307399Y82513D01*
X306357Y83070D01*
X305728Y83261D01*
X305802Y83761D01*
X310000D01*
X310780Y83916D01*
X311442Y84358D01*
X322942Y95858D01*
X323384Y96520D01*
X323539Y97300D01*
X323539Y97300D01*
Y125285D01*
X324039Y125309D01*
X324044Y125260D01*
D02*
G37*
G36*
X299036Y74151D02*
X299786Y73237D01*
X300700Y72487D01*
X301742Y71930D01*
X302371Y71739D01*
X302297Y71239D01*
X297200D01*
X297200Y71239D01*
X296420Y71084D01*
X295758Y70642D01*
X295758Y70642D01*
X285655Y60539D01*
X284145D01*
X281584Y63099D01*
X281915Y63476D01*
X282298Y63182D01*
X283211Y62804D01*
X284192Y62675D01*
X285173Y62804D01*
X286086Y63182D01*
X286871Y63784D01*
X287473Y64569D01*
X287851Y65482D01*
X287980Y66463D01*
X287851Y67444D01*
X287473Y68357D01*
X287008Y68963D01*
X287157Y69468D01*
X287192Y69509D01*
X287876Y69645D01*
X288702Y70198D01*
X293456Y74951D01*
X298608D01*
X299036Y74151D01*
D02*
G37*
G36*
X217846Y76461D02*
X217506Y76017D01*
X217103Y75044D01*
X216966Y74000D01*
X217103Y72956D01*
X217506Y71983D01*
X218147Y71147D01*
X218983Y70506D01*
X219956Y70103D01*
X221000Y69965D01*
X222044Y70103D01*
X223017Y70506D01*
X223853Y71147D01*
X224254Y70849D01*
X224116Y70642D01*
X223961Y69862D01*
Y67400D01*
X223461Y67154D01*
X223017Y67494D01*
X222044Y67897D01*
X221000Y68034D01*
X219956Y67897D01*
X218983Y67494D01*
X218147Y66853D01*
X217506Y66017D01*
X217103Y65044D01*
X216966Y64000D01*
X217103Y62956D01*
X217506Y61983D01*
X217846Y61539D01*
X217600Y61039D01*
X217500D01*
X216720Y60884D01*
X216058Y60442D01*
X209256Y53640D01*
X208833Y53923D01*
X208851Y53968D01*
X208987Y55000D01*
X208851Y56032D01*
X208453Y56993D01*
X207819Y57819D01*
X206993Y58453D01*
X206032Y58851D01*
X205000Y58987D01*
X204025Y58859D01*
X195489Y67395D01*
X186848Y76036D01*
X186212Y76461D01*
X186205Y76498D01*
X186408Y76961D01*
X217600D01*
X217846Y76461D01*
D02*
G37*
G36*
X97898Y48198D02*
X98725Y47645D01*
X99700Y47451D01*
X137804D01*
X138172Y46970D01*
X139060Y46289D01*
X140093Y45861D01*
X139972Y45398D01*
X80512D01*
X79731Y45243D01*
X79070Y44800D01*
X78628Y44139D01*
X78473Y43359D01*
X78628Y42578D01*
X79070Y41917D01*
X79635Y41539D01*
X79554Y41044D01*
X79552Y41039D01*
X76709D01*
X72926Y44822D01*
X72264Y45264D01*
X72264Y45264D01*
X71837Y45349D01*
X71484Y45419D01*
X71484D01*
X70703Y45264D01*
X70703Y45264D01*
X70703Y45264D01*
X70042Y44822D01*
X70042Y44822D01*
X69600Y44160D01*
X69600Y44160D01*
X69515Y43733D01*
X69445Y43380D01*
Y43380D01*
X69600Y42600D01*
X69600Y42600D01*
X69600Y42600D01*
X70042Y41938D01*
X74422Y37558D01*
X74422Y37558D01*
X75084Y37116D01*
X75084Y37116D01*
X75864Y36961D01*
X75864Y36961D01*
X157600D01*
X157846Y36461D01*
X157506Y36017D01*
X157103Y35044D01*
X156965Y34000D01*
X157103Y32956D01*
X157506Y31983D01*
X158147Y31147D01*
X158983Y30506D01*
X159956Y30103D01*
X161000Y29965D01*
X162044Y30103D01*
X163017Y30506D01*
X163853Y31147D01*
X164494Y31983D01*
X164897Y32956D01*
X165034Y34000D01*
X164897Y35044D01*
X164494Y36017D01*
X164154Y36461D01*
X164400Y36961D01*
X170492D01*
X171038Y37069D01*
X171405Y36649D01*
X171149Y36032D01*
X171013Y35000D01*
X171149Y33968D01*
X171547Y33007D01*
X171906Y32539D01*
X171659Y32039D01*
X171000D01*
X170220Y31884D01*
X169558Y31442D01*
X166945Y28829D01*
X166503Y28167D01*
X166348Y27387D01*
Y21039D01*
X164400D01*
X164154Y21539D01*
X164494Y21983D01*
X164897Y22956D01*
X165034Y24000D01*
X164897Y25044D01*
X164494Y26017D01*
X163853Y26853D01*
X163017Y27494D01*
X162044Y27897D01*
X161000Y28034D01*
X159956Y27897D01*
X158983Y27494D01*
X158147Y26853D01*
X157506Y26017D01*
X157103Y25044D01*
X156965Y24000D01*
X157103Y22956D01*
X157506Y21983D01*
X157846Y21539D01*
X157600Y21039D01*
X143194D01*
Y24634D01*
X135288D01*
Y16729D01*
X135074Y16318D01*
X130208D01*
X130176Y16818D01*
X130273Y16831D01*
X131234Y17229D01*
X132060Y17863D01*
X132694Y18688D01*
X133092Y19650D01*
X133228Y20682D01*
X133092Y21714D01*
X132694Y22675D01*
X132060Y23501D01*
X131234Y24135D01*
X130273Y24533D01*
X129241Y24669D01*
X128209Y24533D01*
X127248Y24135D01*
X126422Y23501D01*
X125788Y22675D01*
X125390Y21714D01*
X125254Y20682D01*
X125390Y19650D01*
X125788Y18688D01*
X126422Y17863D01*
X127248Y17229D01*
X128209Y16831D01*
X128306Y16818D01*
X128274Y16318D01*
X100587D01*
X83339Y33565D01*
X82512Y34118D01*
X81537Y34312D01*
X71844D01*
X71730Y34388D01*
X71730Y34388D01*
X71729Y34389D01*
X71241Y34485D01*
X70755Y34582D01*
X66482D01*
X65995Y34485D01*
X65508Y34389D01*
X65507Y34388D01*
X65507Y34388D01*
X65393Y34312D01*
X62126D01*
X53072Y43366D01*
X52245Y43918D01*
X51270Y44113D01*
X43261D01*
X42997Y44377D01*
Y54740D01*
X43497Y54892D01*
X43639Y54680D01*
X47106Y51212D01*
X47063Y51109D01*
X46918Y50000D01*
X47063Y48891D01*
X47492Y47858D01*
X48173Y46970D01*
X49060Y46289D01*
X50093Y45861D01*
X51202Y45715D01*
X52311Y45861D01*
X53345Y46289D01*
X54232Y46970D01*
X54913Y47858D01*
X55341Y48891D01*
X55487Y50000D01*
X55341Y51109D01*
X54913Y52142D01*
X54232Y53030D01*
X53345Y53711D01*
X52311Y54139D01*
X51202Y54285D01*
X50093Y54139D01*
X49990Y54096D01*
X47120Y56966D01*
Y64120D01*
X56199D01*
Y67018D01*
X58500D01*
X59280Y67173D01*
X59942Y67615D01*
X61187Y68860D01*
X63738D01*
X63834Y68629D01*
X64555Y67689D01*
X65495Y66968D01*
X66590Y66515D01*
X67764Y66360D01*
X68939Y66515D01*
X70034Y66968D01*
X70974Y67689D01*
X71695Y68629D01*
X72149Y69724D01*
X72303Y70899D01*
X72149Y72074D01*
X71695Y73168D01*
X71515Y73403D01*
X71737Y73851D01*
X72244D01*
X97898Y48198D01*
D02*
G37*
G36*
X153961Y89000D02*
X154116Y88220D01*
X154558Y87558D01*
X155220Y87116D01*
X156000Y86961D01*
X157600D01*
X157846Y86461D01*
X157506Y86017D01*
X157103Y85044D01*
X156965Y84000D01*
X157103Y82956D01*
X157506Y81983D01*
X158147Y81147D01*
X158983Y80506D01*
X159956Y80103D01*
X161000Y79966D01*
X162017Y80099D01*
X168964Y73152D01*
X168964Y73152D01*
X169626Y72710D01*
X170406Y72555D01*
X170406Y72555D01*
X184562D01*
X192605Y64511D01*
X201142Y55975D01*
X201013Y55000D01*
X201149Y53968D01*
X201547Y53007D01*
X201906Y52539D01*
X201659Y52039D01*
X198196D01*
X198196Y52039D01*
X197963Y52539D01*
X198284Y53020D01*
X198439Y53800D01*
X198284Y54580D01*
X197842Y55242D01*
X197842Y55242D01*
X186369Y66715D01*
X185707Y67157D01*
X184927Y67313D01*
X169929D01*
X169149Y67157D01*
X168487Y66715D01*
X165558Y63786D01*
X165499Y63698D01*
X165019Y63879D01*
X165034Y64000D01*
X164897Y65044D01*
X164494Y66017D01*
X163853Y66853D01*
X163017Y67494D01*
X162044Y67897D01*
X161000Y68034D01*
X159956Y67897D01*
X158983Y67494D01*
X158147Y66853D01*
X157506Y66017D01*
X157103Y65044D01*
X156965Y64000D01*
X157103Y62956D01*
X157506Y61983D01*
X158147Y61147D01*
X158983Y60506D01*
X159956Y60103D01*
X161000Y59965D01*
X162044Y60103D01*
X163017Y60506D01*
X163853Y61147D01*
X164187Y61583D01*
X164865Y61664D01*
X164961Y61589D01*
Y56411D01*
X164865Y56336D01*
X164187Y56417D01*
X163853Y56853D01*
X163017Y57494D01*
X162044Y57897D01*
X161000Y58034D01*
X159956Y57897D01*
X158983Y57494D01*
X158147Y56853D01*
X157506Y56017D01*
X157103Y55044D01*
X156965Y54000D01*
X157103Y52956D01*
X157506Y51983D01*
X157999Y51340D01*
X158007Y51315D01*
X157938Y50791D01*
X157892Y50713D01*
X157487Y50442D01*
X157487Y50442D01*
X152443Y45398D01*
X142432D01*
X142311Y45861D01*
X143344Y46289D01*
X144232Y46970D01*
X144913Y47858D01*
X145341Y48891D01*
X145487Y50000D01*
X145341Y51109D01*
X144913Y52142D01*
X144232Y53030D01*
X143344Y53711D01*
X142311Y54139D01*
X141202Y54285D01*
X140093Y54139D01*
X139060Y53711D01*
X138172Y53030D01*
X137804Y52549D01*
X100756D01*
X82766Y70538D01*
X82958Y71000D01*
X88800D01*
Y77961D01*
X92800D01*
X93580Y78116D01*
X94242Y78558D01*
X112645Y96961D01*
X153961D01*
Y89000D01*
D02*
G37*
G36*
X169730Y48558D02*
X170391Y48116D01*
X171172Y47961D01*
X171659D01*
X171906Y47461D01*
X171547Y46993D01*
X171149Y46032D01*
X171079Y45500D01*
X175000D01*
Y44500D01*
X171079D01*
X171149Y43968D01*
X171547Y43007D01*
X171938Y42498D01*
X171691Y41998D01*
X171450D01*
X170670Y41842D01*
X170008Y41400D01*
X169647Y41039D01*
X164400D01*
X164154Y41539D01*
X164494Y41983D01*
X164897Y42956D01*
X165034Y44000D01*
X164897Y45044D01*
X164731Y45445D01*
X165009Y45860D01*
X165828D01*
X166609Y46015D01*
X167270Y46457D01*
X168442Y47629D01*
X168884Y48291D01*
X168951Y48629D01*
X169494Y48794D01*
X169730Y48558D01*
D02*
G37*
G36*
X190858Y48558D02*
X191520Y48116D01*
X192300Y47961D01*
X201659D01*
X201906Y47461D01*
X201582Y47039D01*
X200000D01*
X199220Y46884D01*
X198558Y46442D01*
X198116Y45780D01*
X197961Y45000D01*
Y36298D01*
X196548Y34885D01*
X196086Y35076D01*
Y41627D01*
X195931Y42407D01*
X195489Y43069D01*
X182116Y56442D01*
X181454Y56884D01*
X180674Y57039D01*
X178953D01*
Y58953D01*
X172039D01*
Y60234D01*
X179182D01*
X190858Y48558D01*
D02*
G37*
G36*
X171547Y26993D02*
X171149Y26032D01*
X171013Y25000D01*
X171149Y23968D01*
X171547Y23007D01*
X172181Y22181D01*
X173007Y21547D01*
X173968Y21149D01*
X175000Y21013D01*
X175975Y21141D01*
X180336Y16780D01*
X180145Y16318D01*
X143832D01*
X143550Y16818D01*
X143637Y16961D01*
X167215D01*
X167996Y17116D01*
X168657Y17558D01*
X169829Y18730D01*
X170271Y19391D01*
X170426Y20172D01*
Y26542D01*
X171139Y27255D01*
X171547Y26993D01*
D02*
G37*
G36*
X282881Y14703D02*
X282690Y14241D01*
X279111D01*
X271810Y21542D01*
X271149Y21984D01*
X270368Y22139D01*
X226000D01*
X225220Y21984D01*
X224965Y21814D01*
X224561Y22145D01*
X224897Y22956D01*
X225034Y24000D01*
X224897Y25044D01*
X224494Y26017D01*
X224154Y26461D01*
X224400Y26961D01*
X270624D01*
X282881Y14703D01*
D02*
G37*
G36*
X192008Y40782D02*
Y14250D01*
X191511Y14040D01*
X186840Y18711D01*
X186179Y19153D01*
X185398Y19308D01*
X183576D01*
X178858Y24025D01*
X178987Y25000D01*
X178851Y26032D01*
X178453Y26993D01*
X178094Y27461D01*
X178341Y27961D01*
X181300D01*
X182080Y28116D01*
X182742Y28558D01*
X185242Y31058D01*
X185684Y31720D01*
X185839Y32500D01*
Y46244D01*
X186339Y46451D01*
X192008Y40782D01*
D02*
G37*
G36*
X129883Y194041D02*
X123984Y188142D01*
X123542Y187481D01*
X123387Y186700D01*
Y173601D01*
X122914Y173441D01*
X122853Y173520D01*
X122017Y174161D01*
X121044Y174564D01*
X120500Y174636D01*
Y170667D01*
Y166698D01*
X121044Y166770D01*
X122017Y167173D01*
X122853Y167814D01*
X122914Y167893D01*
X123387Y167733D01*
Y159674D01*
X123542Y158893D01*
X123618Y158780D01*
X123382Y158339D01*
X56991D01*
X56761Y158839D01*
X57185Y159336D01*
X58044Y160739D01*
X58674Y162258D01*
X58901Y163203D01*
X74830D01*
X75708Y163377D01*
X76452Y163875D01*
X79302Y166724D01*
X79500Y166698D01*
Y170167D01*
X76031D01*
X76057Y169969D01*
X73880Y167791D01*
X58901D01*
X58674Y168736D01*
X58044Y170255D01*
X57185Y171657D01*
X56117Y172908D01*
X54866Y173976D01*
X53464Y174836D01*
X51944Y175465D01*
X50345Y175849D01*
X49206Y175939D01*
Y165497D01*
Y155055D01*
X50345Y155145D01*
X51944Y155529D01*
X52445Y155736D01*
X52728Y155312D01*
X45255Y147839D01*
X19000D01*
X18220Y147684D01*
X17558Y147242D01*
X13158Y142842D01*
X12716Y142180D01*
X12561Y141400D01*
Y66447D01*
X12716Y65667D01*
X13158Y65005D01*
X15855Y62309D01*
X15796Y62166D01*
X15647Y61036D01*
X15796Y59907D01*
X16232Y58854D01*
X16925Y57951D01*
X17829Y57257D01*
X18881Y56821D01*
X20011Y56672D01*
X21140Y56821D01*
X22193Y57257D01*
X23097Y57951D01*
X23790Y58854D01*
X24226Y59907D01*
X24375Y61036D01*
X24226Y62166D01*
X24167Y62309D01*
X26665Y64806D01*
X27255Y64689D01*
X27413Y64307D01*
X28106Y63403D01*
X29010Y62710D01*
X30063Y62274D01*
X31192Y62125D01*
X32322Y62274D01*
X33374Y62710D01*
X34278Y63403D01*
X34972Y64307D01*
X35408Y65360D01*
X35556Y66489D01*
X35408Y67619D01*
X34972Y68671D01*
X34278Y69575D01*
X33374Y70269D01*
X32322Y70705D01*
X31192Y70853D01*
X30063Y70705D01*
X29010Y70269D01*
X28139Y69600D01*
X27912Y69641D01*
X27639Y69734D01*
Y74150D01*
X27912Y74243D01*
X28139Y74283D01*
X29010Y73615D01*
X30063Y73179D01*
X31192Y73031D01*
X31863Y73119D01*
X37899Y67083D01*
Y43321D01*
X37899Y43321D01*
X37899Y43321D01*
X37992Y42851D01*
X38093Y42345D01*
X38093Y42345D01*
X38093Y42345D01*
X38371Y41930D01*
X38646Y41518D01*
X38646Y41518D01*
X38646Y41518D01*
X40403Y39761D01*
X40913Y39421D01*
X41230Y39209D01*
X41230Y39209D01*
X41230Y39209D01*
X41751Y39105D01*
X42205Y39015D01*
X50214D01*
X51595Y37633D01*
X51341Y37180D01*
X50559Y37368D01*
X49419Y37458D01*
Y27516D01*
X59361D01*
X59271Y28656D01*
X59071Y29491D01*
X59511Y29798D01*
X60095Y29408D01*
X61070Y29214D01*
X65237D01*
X65458Y28766D01*
X65424Y28720D01*
X65055Y27831D01*
X64929Y26876D01*
X65055Y25921D01*
X65424Y25031D01*
X66010Y24267D01*
X66774Y23681D01*
X67664Y23313D01*
X68618Y23187D01*
X69573Y23313D01*
X70463Y23681D01*
X71227Y24267D01*
X71813Y25031D01*
X72182Y25921D01*
X72307Y26876D01*
X72182Y27831D01*
X71813Y28720D01*
X71779Y28766D01*
X72000Y29214D01*
X80481D01*
X97729Y11967D01*
X98556Y11414D01*
X99531Y11220D01*
X183949D01*
X184924Y11414D01*
X185751Y11967D01*
X186295Y12781D01*
X186349Y12854D01*
X186837Y12946D01*
X190840Y8943D01*
X191502Y8501D01*
X192282Y8346D01*
X192282Y8346D01*
X246168D01*
X246766Y7566D01*
X247592Y6932D01*
X248553Y6534D01*
X249585Y6398D01*
X250617Y6534D01*
X251579Y6932D01*
X252404Y7566D01*
X253038Y8392D01*
X253436Y9353D01*
X253572Y10385D01*
X253436Y11417D01*
X253038Y12378D01*
X252404Y13204D01*
X251579Y13838D01*
X250617Y14236D01*
X249585Y14372D01*
X248553Y14236D01*
X247592Y13838D01*
X246766Y13204D01*
X246168Y12424D01*
X227968D01*
X227761Y12924D01*
X229845Y15008D01*
X252079D01*
X255633Y11454D01*
Y6432D01*
X263538D01*
Y14338D01*
X258517D01*
X255255Y17599D01*
X255447Y18061D01*
X269524D01*
X276227Y11357D01*
Y6336D01*
X284133D01*
Y12799D01*
X284595Y12990D01*
X286321Y11263D01*
X286193Y10288D01*
X286329Y9257D01*
X286727Y8295D01*
X287361Y7469D01*
X288187Y6836D01*
X289148Y6437D01*
X290180Y6301D01*
X291212Y6437D01*
X292173Y6836D01*
X292999Y7469D01*
X293633Y8295D01*
X294031Y9257D01*
X294167Y10288D01*
X294031Y11320D01*
X293633Y12282D01*
X292999Y13107D01*
X292173Y13741D01*
X291212Y14139D01*
X290180Y14275D01*
X289205Y14147D01*
X272910Y30442D01*
X272249Y30884D01*
X271468Y31039D01*
X224803D01*
X224525Y31539D01*
X224629Y31706D01*
X286080D01*
X286958Y31881D01*
X287702Y32378D01*
X294198Y38873D01*
X294591Y38822D01*
X295546Y38947D01*
X296435Y39316D01*
X297199Y39902D01*
X297786Y40666D01*
X298154Y41556D01*
X298252Y42296D01*
X298763Y42491D01*
X303573Y37681D01*
X303431Y37133D01*
X302810Y36984D01*
X301291Y36355D01*
X299888Y35495D01*
X298638Y34427D01*
X297570Y33177D01*
X296710Y31774D01*
X296081Y30255D01*
X295697Y28656D01*
X295607Y27516D01*
X306049D01*
X316491D01*
X316401Y28656D01*
X316017Y30255D01*
X315388Y31774D01*
X314529Y33177D01*
X313460Y34427D01*
X312210Y35495D01*
X310807Y36355D01*
X309288Y36984D01*
X308343Y37211D01*
Y38449D01*
X308169Y39327D01*
X307671Y40071D01*
X299194Y48548D01*
X299386Y49010D01*
X315510D01*
X325119Y39401D01*
Y34285D01*
X333119D01*
Y42285D01*
X328003D01*
X317796Y52491D01*
X317135Y52934D01*
X316354Y53089D01*
X260450D01*
X247875Y65664D01*
X247980Y66463D01*
X247851Y67444D01*
X247473Y68357D01*
X246871Y69142D01*
X246086Y69744D01*
X245173Y70122D01*
X244192Y70251D01*
X243212Y70122D01*
X242298Y69744D01*
X241513Y69142D01*
X240911Y68357D01*
X240533Y67444D01*
X240404Y66463D01*
X240533Y65482D01*
X240911Y64569D01*
X241513Y63784D01*
X242298Y63182D01*
X243212Y62804D01*
X244192Y62675D01*
X244991Y62780D01*
X258163Y49608D01*
X258825Y49166D01*
X259605Y49010D01*
X277508D01*
X277699Y48548D01*
X275406Y46255D01*
Y43011D01*
X278650D01*
X280845Y45206D01*
X291418D01*
X291665Y44706D01*
X291396Y44355D01*
X291027Y43466D01*
X290902Y42511D01*
X290953Y42118D01*
X285130Y36294D01*
X224282D01*
X223853Y36853D01*
X223017Y37494D01*
X222044Y37897D01*
X221000Y38034D01*
X219956Y37897D01*
X218983Y37494D01*
X218147Y36853D01*
X217718Y36294D01*
X214000D01*
X213122Y36119D01*
X212378Y35622D01*
X205656Y28901D01*
X205000Y28987D01*
X203968Y28851D01*
X203007Y28453D01*
X202586Y28130D01*
X202086Y28377D01*
Y29202D01*
X204025Y31141D01*
X205000Y31013D01*
X206032Y31149D01*
X206993Y31547D01*
X207819Y32181D01*
X208453Y33007D01*
X208851Y33968D01*
X208987Y35000D01*
X208851Y36032D01*
X208453Y36993D01*
X207819Y37819D01*
X206993Y38453D01*
X206032Y38851D01*
X205000Y38987D01*
X203968Y38851D01*
X203007Y38453D01*
X202539Y38094D01*
X202039Y38341D01*
Y41659D01*
X202539Y41906D01*
X203007Y41547D01*
X203968Y41149D01*
X205000Y41013D01*
X206032Y41149D01*
X206993Y41547D01*
X207819Y42181D01*
X208453Y43007D01*
X208851Y43968D01*
X208987Y45000D01*
X208851Y46032D01*
X208453Y46993D01*
X208094Y47461D01*
X208341Y47961D01*
X208500D01*
X209280Y48116D01*
X209942Y48558D01*
X216571Y55187D01*
X217063Y55046D01*
X217098Y55007D01*
X216966Y54000D01*
X217103Y52956D01*
X217506Y51983D01*
X218147Y51147D01*
X218983Y50506D01*
X219956Y50103D01*
X221000Y49966D01*
X222044Y50103D01*
X223017Y50506D01*
X223853Y51147D01*
X224494Y51983D01*
X224897Y52956D01*
X225034Y54000D01*
X224897Y55044D01*
X224494Y56017D01*
X224154Y56461D01*
X224400Y56961D01*
X226000D01*
X226780Y57116D01*
X227442Y57558D01*
X227884Y58220D01*
X228039Y59000D01*
Y69017D01*
X243393Y84371D01*
X244192Y84266D01*
X245173Y84395D01*
X246086Y84773D01*
X246221Y84877D01*
X246305Y84865D01*
X246547Y84328D01*
X246245Y83876D01*
X246051Y82900D01*
X246245Y81924D01*
X246798Y81098D01*
X247624Y80545D01*
X248600Y80351D01*
X264144D01*
X264724Y79771D01*
X264587Y79417D01*
X264491Y79298D01*
X247361D01*
X246871Y79937D01*
X246086Y80539D01*
X245173Y80918D01*
X244192Y81047D01*
X243212Y80918D01*
X242298Y80539D01*
X241513Y79937D01*
X240911Y79153D01*
X240533Y78239D01*
X240404Y77258D01*
X240533Y76278D01*
X240911Y75364D01*
X241513Y74580D01*
X242298Y73978D01*
X243212Y73599D01*
X244192Y73470D01*
X245173Y73599D01*
X246086Y73978D01*
X246871Y74580D01*
X247361Y75219D01*
X263697D01*
X281858Y57058D01*
X282520Y56616D01*
X283300Y56461D01*
X286500D01*
X287280Y56616D01*
X287942Y57058D01*
X298045Y67161D01*
X301967D01*
X302041Y66661D01*
X301742Y66570D01*
X300700Y66013D01*
X299786Y65263D01*
X299036Y64350D01*
X298479Y63307D01*
X298136Y62176D01*
X298020Y61000D01*
X298136Y59824D01*
X298479Y58693D01*
X299036Y57651D01*
X299786Y56737D01*
X300700Y55987D01*
X301742Y55430D01*
X302873Y55087D01*
X304049Y54971D01*
X305226Y55087D01*
X306357Y55430D01*
X307399Y55987D01*
X308313Y56737D01*
X309062Y57651D01*
X309619Y58693D01*
X309963Y59824D01*
X310078Y61000D01*
X309963Y62176D01*
X309619Y63307D01*
X309062Y64350D01*
X308313Y65263D01*
X307399Y66013D01*
X306357Y66570D01*
X306058Y66661D01*
X306132Y67161D01*
X321500D01*
X322280Y67316D01*
X322942Y67758D01*
X344142Y88958D01*
X344584Y89620D01*
X344739Y90400D01*
Y146859D01*
X344584Y147639D01*
X344142Y148301D01*
X334180Y158262D01*
Y163378D01*
X326180D01*
Y155378D01*
X331296D01*
X340661Y146014D01*
Y132069D01*
X340500Y132028D01*
X340161Y132006D01*
X339095Y133305D01*
X337744Y134414D01*
X336202Y135238D01*
X334529Y135746D01*
X332790Y135917D01*
X331050Y135746D01*
X329377Y135238D01*
X327836Y134414D01*
X326484Y133305D01*
X325375Y131954D01*
X324551Y130412D01*
X324044Y128740D01*
X324039Y128691D01*
X323539Y128715D01*
Y175000D01*
X323384Y175780D01*
X322942Y176442D01*
X317771Y181613D01*
X317963Y182074D01*
X329989D01*
X330379Y182152D01*
X330710Y182373D01*
X330931Y182704D01*
X331008Y183094D01*
Y193952D01*
X331367Y194429D01*
X332168Y194377D01*
X334290Y193955D01*
X336339Y193259D01*
X338279Y192302D01*
X340078Y191100D01*
X341705Y189674D01*
X343132Y188047D01*
X344334Y186248D01*
X345291Y184307D01*
X345986Y182258D01*
X346408Y180136D01*
X346518Y178470D01*
X346534Y177977D01*
X346534D01*
X346534Y177977D01*
Y20234D01*
X346534Y19739D01*
X346517Y19247D01*
X346410Y17622D01*
X345996Y15540D01*
X345314Y13531D01*
X344376Y11627D01*
X343197Y9863D01*
X341797Y8267D01*
X340202Y6868D01*
X338437Y5689D01*
X338279Y5611D01*
X337854Y5875D01*
Y16157D01*
X337777Y16547D01*
X337556Y16878D01*
X337225Y17099D01*
X336835Y17176D01*
X316868D01*
X316477Y17099D01*
X316147Y16878D01*
X315926Y16547D01*
X315848Y16157D01*
Y5161D01*
X315926Y4771D01*
X316147Y4440D01*
X316477Y4219D01*
X316868Y4141D01*
X332230D01*
X332247Y3641D01*
X330401Y3520D01*
X330325Y3530D01*
X72775D01*
X72276Y3533D01*
X72276Y4030D01*
Y6691D01*
X68618D01*
X64961D01*
X64961Y3533D01*
X64462Y3530D01*
X17717D01*
X17717Y3530D01*
X17717Y3530D01*
X17223Y3545D01*
X15493Y3681D01*
X13325Y4202D01*
X11265Y5055D01*
X9364Y6220D01*
X7668Y7668D01*
X6220Y9364D01*
X5055Y11265D01*
X4202Y13325D01*
X3681Y15493D01*
X3545Y17222D01*
X3530Y17716D01*
X3530Y17717D01*
X3530Y17717D01*
Y180413D01*
X3515Y180526D01*
X3680Y182621D01*
X4197Y184774D01*
X5045Y186820D01*
X6202Y188709D01*
X7640Y190393D01*
X9324Y191831D01*
X11212Y192988D01*
X13258Y193836D01*
X15412Y194353D01*
X17126Y194488D01*
X17619Y194503D01*
Y194503D01*
X17621Y194503D01*
X129692D01*
X129883Y194041D01*
D02*
G37*
%LPC*%
G36*
X161000Y158035D02*
X159956Y157897D01*
X158983Y157494D01*
X158147Y156853D01*
X157506Y156017D01*
X157103Y155044D01*
X156965Y154000D01*
X157103Y152956D01*
X157506Y151983D01*
X158147Y151147D01*
X158983Y150506D01*
X159956Y150103D01*
X161000Y149966D01*
X162044Y150103D01*
X163017Y150506D01*
X163853Y151147D01*
X164494Y151983D01*
X164897Y152956D01*
X165034Y154000D01*
X164897Y155044D01*
X164494Y156017D01*
X163853Y156853D01*
X163017Y157494D01*
X162044Y157897D01*
X161000Y158035D01*
D02*
G37*
G36*
Y148035D02*
X159956Y147897D01*
X158983Y147494D01*
X158147Y146853D01*
X157506Y146017D01*
X157103Y145044D01*
X156965Y144000D01*
X157103Y142956D01*
X157506Y141983D01*
X158147Y141147D01*
X158983Y140506D01*
X159956Y140103D01*
X161000Y139965D01*
X162044Y140103D01*
X163017Y140506D01*
X163853Y141147D01*
X164494Y141983D01*
X164897Y142956D01*
X165034Y144000D01*
X164897Y145044D01*
X164494Y146017D01*
X163853Y146853D01*
X163017Y147494D01*
X162044Y147897D01*
X161000Y148035D01*
D02*
G37*
G36*
X164969Y133500D02*
X161500D01*
Y130031D01*
X162044Y130103D01*
X163017Y130506D01*
X163853Y131147D01*
X164494Y131983D01*
X164897Y132956D01*
X164969Y133500D01*
D02*
G37*
G36*
X160500Y137969D02*
X159956Y137897D01*
X158983Y137494D01*
X158147Y136853D01*
X157718Y136294D01*
X154208D01*
X153330Y136119D01*
X152585Y135622D01*
X133446Y116483D01*
Y113238D01*
X136690D01*
X155158Y131706D01*
X157718D01*
X158147Y131147D01*
X158983Y130506D01*
X159956Y130103D01*
X160500Y130031D01*
Y134000D01*
Y137969D01*
D02*
G37*
G36*
X175000Y133530D02*
X174086Y133410D01*
X173235Y133057D01*
X172504Y132496D01*
X171943Y131765D01*
X171590Y130914D01*
X171470Y130000D01*
X171590Y129086D01*
X171943Y128235D01*
X172504Y127504D01*
X173235Y126943D01*
X174086Y126590D01*
X175000Y126470D01*
X175914Y126590D01*
X176765Y126943D01*
X177496Y127504D01*
X178057Y128235D01*
X178410Y129086D01*
X178530Y130000D01*
X178410Y130914D01*
X178057Y131765D01*
X177496Y132496D01*
X176765Y133057D01*
X175914Y133410D01*
X175000Y133530D01*
D02*
G37*
G36*
X161000Y128034D02*
X159956Y127897D01*
X158983Y127494D01*
X158147Y126853D01*
X157506Y126017D01*
X157103Y125044D01*
X156965Y124000D01*
X157103Y122956D01*
X157506Y121983D01*
X158147Y121147D01*
X158983Y120506D01*
X159956Y120103D01*
X161000Y119966D01*
X162044Y120103D01*
X163017Y120506D01*
X163853Y121147D01*
X164494Y121983D01*
X164897Y122956D01*
X165034Y124000D01*
X164897Y125044D01*
X164494Y126017D01*
X163853Y126853D01*
X163017Y127494D01*
X162044Y127897D01*
X161000Y128034D01*
D02*
G37*
G36*
X132446Y116396D02*
X129288D01*
Y113238D01*
X132446D01*
Y116396D01*
D02*
G37*
G36*
X136603Y112238D02*
X133446D01*
Y109081D01*
X136603D01*
Y112238D01*
D02*
G37*
G36*
X132446D02*
X129288D01*
Y109081D01*
X132446D01*
Y112238D01*
D02*
G37*
G36*
X221000Y128034D02*
X219956Y127897D01*
X218983Y127494D01*
X218147Y126853D01*
X217506Y126017D01*
X217103Y125044D01*
X216966Y124000D01*
X217103Y122956D01*
X217506Y121983D01*
X218147Y121147D01*
X218983Y120506D01*
X219956Y120103D01*
X221000Y119966D01*
X222044Y120103D01*
X223017Y120506D01*
X223853Y121147D01*
X224494Y121983D01*
X224897Y122956D01*
X225034Y124000D01*
X224897Y125044D01*
X224494Y126017D01*
X223853Y126853D01*
X223017Y127494D01*
X222044Y127897D01*
X221000Y128034D01*
D02*
G37*
G36*
X284192Y124229D02*
X283211Y124099D01*
X282298Y123721D01*
X281513Y123119D01*
X280911Y122334D01*
X280533Y121421D01*
X280404Y120440D01*
X280533Y119460D01*
X280911Y118546D01*
X281513Y117762D01*
X282298Y117159D01*
X283211Y116781D01*
X284192Y116652D01*
X285173Y116781D01*
X286086Y117159D01*
X286871Y117762D01*
X287473Y118546D01*
X287851Y119460D01*
X287980Y120440D01*
X287851Y121421D01*
X287473Y122334D01*
X286871Y123119D01*
X286086Y123721D01*
X285173Y124099D01*
X284192Y124229D01*
D02*
G37*
G36*
Y113433D02*
X283211Y113304D01*
X282298Y112926D01*
X281513Y112323D01*
X280911Y111539D01*
X280533Y110625D01*
X280404Y109645D01*
X280533Y108664D01*
X280911Y107751D01*
X281513Y106966D01*
X282298Y106364D01*
X283211Y105986D01*
X284192Y105857D01*
X285173Y105986D01*
X286086Y106364D01*
X286871Y106966D01*
X287473Y107751D01*
X287851Y108664D01*
X287980Y109645D01*
X287851Y110625D01*
X287473Y111539D01*
X286871Y112323D01*
X286086Y112926D01*
X285173Y113304D01*
X284192Y113433D01*
D02*
G37*
G36*
X205000Y163530D02*
X204086Y163410D01*
X203235Y163057D01*
X202504Y162496D01*
X201943Y161765D01*
X201590Y160914D01*
X201470Y160000D01*
X201590Y159086D01*
X201943Y158235D01*
X202504Y157504D01*
X203235Y156943D01*
X204086Y156590D01*
X205000Y156470D01*
X205914Y156590D01*
X206765Y156943D01*
X207496Y157504D01*
X208057Y158235D01*
X208410Y159086D01*
X208530Y160000D01*
X208410Y160914D01*
X208057Y161765D01*
X207496Y162496D01*
X206765Y163057D01*
X205914Y163410D01*
X205000Y163530D01*
D02*
G37*
G36*
X221500Y157969D02*
Y154500D01*
X224969D01*
X224897Y155044D01*
X224494Y156017D01*
X223853Y156853D01*
X223017Y157494D01*
X222044Y157897D01*
X221500Y157969D01*
D02*
G37*
G36*
X220500D02*
X219956Y157897D01*
X218983Y157494D01*
X218147Y156853D01*
X217506Y156017D01*
X217103Y155044D01*
X217031Y154500D01*
X220500D01*
Y157969D01*
D02*
G37*
G36*
X279599Y154138D02*
X276442D01*
Y150980D01*
X279599D01*
Y154138D01*
D02*
G37*
G36*
X275442D02*
X272284D01*
Y150980D01*
X275442D01*
Y154138D01*
D02*
G37*
G36*
X246389D02*
X243232D01*
Y150980D01*
X246389D01*
Y154138D01*
D02*
G37*
G36*
X279599Y149980D02*
X276442D01*
Y146823D01*
X279599D01*
Y149980D01*
D02*
G37*
G36*
X224969Y153500D02*
X221500D01*
Y150031D01*
X221698Y150057D01*
X225795Y145960D01*
X226540Y145463D01*
X227418Y145288D01*
X243991D01*
X244869Y145463D01*
X245613Y145960D01*
X246389Y146736D01*
Y149980D01*
X243145D01*
X243041Y149876D01*
X228368D01*
X224943Y153302D01*
X224969Y153500D01*
D02*
G37*
G36*
X221000Y148035D02*
X219956Y147897D01*
X218983Y147494D01*
X218147Y146853D01*
X217506Y146017D01*
X217103Y145044D01*
X216966Y144000D01*
X217103Y142956D01*
X217506Y141983D01*
X218147Y141147D01*
X218983Y140506D01*
X219956Y140103D01*
X221000Y139965D01*
X222044Y140103D01*
X223017Y140506D01*
X223853Y141147D01*
X224494Y141983D01*
X224897Y142956D01*
X225034Y144000D01*
X224897Y145044D01*
X224494Y146017D01*
X223853Y146853D01*
X223017Y147494D01*
X222044Y147897D01*
X221000Y148035D01*
D02*
G37*
G36*
X31192Y136286D02*
X30063Y136138D01*
X29010Y135702D01*
X28106Y135008D01*
X27413Y134104D01*
X26977Y133052D01*
X26828Y131922D01*
X26977Y130793D01*
X27413Y129740D01*
X28106Y128836D01*
X29010Y128143D01*
X30063Y127707D01*
X31192Y127558D01*
X32322Y127707D01*
X33374Y128143D01*
X34278Y128836D01*
X34972Y129740D01*
X35408Y130793D01*
X35556Y131922D01*
X35408Y133052D01*
X34972Y134104D01*
X34278Y135008D01*
X33374Y135702D01*
X32322Y136138D01*
X31192Y136286D01*
D02*
G37*
G36*
X50529Y129306D02*
Y125587D01*
X54248D01*
X54168Y126196D01*
X53740Y127229D01*
X53059Y128117D01*
X52171Y128798D01*
X51138Y129226D01*
X50529Y129306D01*
D02*
G37*
G36*
X49529D02*
X48920Y129226D01*
X47887Y128798D01*
X46999Y128117D01*
X46435Y127381D01*
X35263D01*
X34385Y127207D01*
X33640Y126709D01*
X32182Y125251D01*
X31692Y125315D01*
Y121517D01*
X35491D01*
X35426Y122006D01*
X36213Y122793D01*
X46435D01*
X46999Y122057D01*
X47887Y121377D01*
X48920Y120949D01*
X49529Y120868D01*
Y125087D01*
Y129306D01*
D02*
G37*
G36*
X30692Y125315D02*
X30063Y125232D01*
X29010Y124796D01*
X28106Y124103D01*
X27413Y123199D01*
X26977Y122146D01*
X26894Y121517D01*
X30692D01*
Y125315D01*
D02*
G37*
G36*
X54248Y124587D02*
X50529D01*
Y120868D01*
X51138Y120949D01*
X52171Y121377D01*
X53059Y122057D01*
X53740Y122945D01*
X54168Y123978D01*
X54248Y124587D01*
D02*
G37*
G36*
X35491Y120517D02*
X31692D01*
Y116718D01*
X32322Y116801D01*
X33374Y117237D01*
X34278Y117931D01*
X34972Y118835D01*
X35408Y119887D01*
X35491Y120517D01*
D02*
G37*
G36*
X30692D02*
X26894D01*
X26977Y119887D01*
X27413Y118835D01*
X28106Y117931D01*
X29010Y117237D01*
X30063Y116801D01*
X30692Y116718D01*
Y120517D01*
D02*
G37*
G36*
X31692Y114409D02*
Y110611D01*
X35491D01*
X35408Y111241D01*
X34972Y112293D01*
X34278Y113197D01*
X33374Y113891D01*
X32322Y114327D01*
X31692Y114409D01*
D02*
G37*
G36*
X30692Y114409D02*
X30063Y114327D01*
X29010Y113891D01*
X28106Y113197D01*
X27413Y112293D01*
X26977Y111241D01*
X26894Y110611D01*
X30692D01*
Y114409D01*
D02*
G37*
G36*
X67764Y100438D02*
X66590Y100283D01*
X65495Y99830D01*
X64555Y99108D01*
X63834Y98168D01*
X63380Y97074D01*
X63226Y95899D01*
X63380Y94724D01*
X63834Y93629D01*
X64555Y92689D01*
X65495Y91968D01*
X66590Y91515D01*
X67764Y91360D01*
X68939Y91515D01*
X70034Y91968D01*
X70974Y92689D01*
X71695Y93629D01*
X72149Y94724D01*
X72303Y95899D01*
X72149Y97074D01*
X71695Y98168D01*
X70974Y99108D01*
X70034Y99830D01*
X68939Y100283D01*
X67764Y100438D01*
D02*
G37*
G36*
X84800Y99035D02*
X83756Y98897D01*
X82783Y98494D01*
X81947Y97853D01*
X81306Y97018D01*
X80903Y96044D01*
X80765Y95000D01*
X80903Y93956D01*
X81306Y92983D01*
X81947Y92147D01*
X82783Y91506D01*
X83756Y91103D01*
X84800Y90966D01*
X85844Y91103D01*
X86817Y91506D01*
X87653Y92147D01*
X88294Y92983D01*
X88697Y93956D01*
X88835Y95000D01*
X88697Y96044D01*
X88294Y97018D01*
X87653Y97853D01*
X86817Y98494D01*
X85844Y98897D01*
X84800Y99035D01*
D02*
G37*
G36*
X85300Y88969D02*
Y85500D01*
X88769D01*
X88697Y86044D01*
X88294Y87018D01*
X87653Y87853D01*
X86817Y88494D01*
X85844Y88897D01*
X85300Y88969D01*
D02*
G37*
G36*
X84300D02*
X83756Y88897D01*
X82783Y88494D01*
X81947Y87853D01*
X81306Y87018D01*
X80903Y86044D01*
X80831Y85500D01*
X84300D01*
Y88969D01*
D02*
G37*
G36*
X244692Y113367D02*
Y110145D01*
X247915D01*
X247851Y110625D01*
X247473Y111539D01*
X246871Y112323D01*
X246086Y112926D01*
X245173Y113304D01*
X244692Y113367D01*
D02*
G37*
G36*
X243692D02*
X243212Y113304D01*
X242298Y112926D01*
X241513Y112323D01*
X240911Y111539D01*
X240533Y110625D01*
X240470Y110145D01*
X243692D01*
Y113367D01*
D02*
G37*
G36*
X247915Y109145D02*
X244692D01*
Y105922D01*
X245173Y105986D01*
X246086Y106364D01*
X246871Y106966D01*
X247473Y107751D01*
X247851Y108664D01*
X247915Y109145D01*
D02*
G37*
G36*
X243692D02*
X240470D01*
X240533Y108664D01*
X240911Y107751D01*
X241513Y106966D01*
X242298Y106364D01*
X243212Y105986D01*
X243692Y105922D01*
Y109145D01*
D02*
G37*
G36*
X161000Y78035D02*
X159956Y77897D01*
X158983Y77494D01*
X158147Y76853D01*
X157506Y76017D01*
X157103Y75044D01*
X156965Y74000D01*
X157103Y72956D01*
X157506Y71983D01*
X158147Y71147D01*
X158983Y70506D01*
X159956Y70103D01*
X161000Y69965D01*
X162044Y70103D01*
X163017Y70506D01*
X163853Y71147D01*
X164494Y71983D01*
X164897Y72956D01*
X165034Y74000D01*
X164897Y75044D01*
X164494Y76017D01*
X163853Y76853D01*
X163017Y77494D01*
X162044Y77897D01*
X161000Y78035D01*
D02*
G37*
G36*
X57681Y191667D02*
Y188246D01*
X61102D01*
X61032Y188778D01*
X60633Y189739D01*
X60000Y190565D01*
X59174Y191199D01*
X58213Y191597D01*
X57681Y191667D01*
D02*
G37*
G36*
X56681D02*
X56149Y191597D01*
X55187Y191199D01*
X54361Y190565D01*
X53728Y189739D01*
X53330Y188778D01*
X53260Y188246D01*
X56681D01*
Y191667D01*
D02*
G37*
G36*
X61102Y187246D02*
X57681D01*
Y183825D01*
X58213Y183895D01*
X59174Y184293D01*
X60000Y184927D01*
X60633Y185753D01*
X61032Y186714D01*
X61102Y187246D01*
D02*
G37*
G36*
X56681D02*
X53260D01*
X53330Y186714D01*
X53728Y185753D01*
X54361Y184927D01*
X55187Y184293D01*
X56149Y183895D01*
X56681Y183825D01*
Y187246D01*
D02*
G37*
G36*
X71133Y191699D02*
X63228D01*
Y183793D01*
X71133D01*
Y185452D01*
X78804D01*
X89818Y174438D01*
X90562Y173940D01*
X91440Y173766D01*
X94048D01*
X94926Y173940D01*
X95670Y174438D01*
X96168Y175182D01*
X96342Y176060D01*
X96168Y176938D01*
X95670Y177682D01*
X94926Y178179D01*
X94048Y178354D01*
X92390D01*
X81376Y189368D01*
X80632Y189866D01*
X79754Y190040D01*
X71133D01*
Y191699D01*
D02*
G37*
G36*
X79500Y174636D02*
X78956Y174564D01*
X77983Y174161D01*
X77147Y173520D01*
X76506Y172684D01*
X76103Y171711D01*
X76031Y171167D01*
X79500D01*
Y174636D01*
D02*
G37*
G36*
X80500D02*
Y170667D01*
Y166698D01*
X81044Y166770D01*
X82017Y167173D01*
X82853Y167814D01*
X83282Y168373D01*
X116718D01*
X117147Y167814D01*
X117983Y167173D01*
X118956Y166770D01*
X119500Y166698D01*
Y170667D01*
Y174636D01*
X118956Y174564D01*
X117983Y174161D01*
X117147Y173520D01*
X116718Y172961D01*
X83282D01*
X82853Y173520D01*
X82017Y174161D01*
X81044Y174564D01*
X80500Y174636D01*
D02*
G37*
G36*
X48206Y175939D02*
X47066Y175849D01*
X45467Y175465D01*
X43947Y174836D01*
X42545Y173976D01*
X41294Y172908D01*
X40226Y171657D01*
X39367Y170255D01*
X38737Y168736D01*
X38353Y167136D01*
X38264Y165997D01*
X48206D01*
Y175939D01*
D02*
G37*
G36*
Y164997D02*
X38264D01*
X38353Y163857D01*
X38737Y162258D01*
X39367Y160739D01*
X40226Y159336D01*
X41294Y158086D01*
X42545Y157017D01*
X43947Y156158D01*
X45467Y155529D01*
X47066Y155145D01*
X48206Y155055D01*
Y164997D01*
D02*
G37*
G36*
X25602Y169825D02*
X23962Y169696D01*
X22363Y169312D01*
X20843Y168682D01*
X19441Y167823D01*
X18190Y166755D01*
X17122Y165504D01*
X16263Y164102D01*
X15633Y162582D01*
X15249Y160983D01*
X15121Y159344D01*
X15249Y157704D01*
X15633Y156105D01*
X16263Y154585D01*
X17122Y153183D01*
X18190Y151932D01*
X19441Y150864D01*
X20843Y150005D01*
X22363Y149375D01*
X23962Y148992D01*
X25602Y148863D01*
X27241Y148992D01*
X28840Y149375D01*
X30360Y150005D01*
X31762Y150864D01*
X33013Y151932D01*
X34081Y153183D01*
X34940Y154585D01*
X35570Y156105D01*
X35954Y157704D01*
X36083Y159344D01*
X35954Y160983D01*
X35570Y162582D01*
X34940Y164102D01*
X34081Y165504D01*
X33013Y166755D01*
X31762Y167823D01*
X30360Y168682D01*
X28840Y169312D01*
X27241Y169696D01*
X25602Y169825D01*
D02*
G37*
G36*
X330180Y153413D02*
X329136Y153276D01*
X328163Y152872D01*
X327327Y152231D01*
X326686Y151396D01*
X326283Y150423D01*
X326146Y149378D01*
X326283Y148334D01*
X326686Y147361D01*
X327327Y146526D01*
X328163Y145884D01*
X329136Y145481D01*
X330180Y145344D01*
X331224Y145481D01*
X332197Y145884D01*
X333033Y146526D01*
X333674Y147361D01*
X334077Y148334D01*
X334215Y149378D01*
X334077Y150423D01*
X333674Y151396D01*
X333033Y152231D01*
X332197Y152872D01*
X331224Y153276D01*
X330180Y153413D01*
D02*
G37*
G36*
X332790Y69775D02*
X331050Y69604D01*
X329377Y69096D01*
X327836Y68272D01*
X326484Y67163D01*
X325375Y65812D01*
X324551Y64271D01*
X324044Y62598D01*
X323873Y60858D01*
X324044Y59119D01*
X324551Y57446D01*
X325375Y55904D01*
X326484Y54553D01*
X327836Y53444D01*
X329377Y52620D01*
X331050Y52113D01*
X332790Y51941D01*
X334529Y52113D01*
X336202Y52620D01*
X337744Y53444D01*
X339095Y54553D01*
X340204Y55904D01*
X341028Y57446D01*
X341535Y59119D01*
X341707Y60858D01*
X341535Y62598D01*
X341028Y64271D01*
X340204Y65812D01*
X339095Y67163D01*
X337744Y68272D01*
X336202Y69096D01*
X334529Y69604D01*
X332790Y69775D01*
D02*
G37*
G36*
X35519Y59911D02*
X26865D01*
Y51257D01*
X35519D01*
Y59911D01*
D02*
G37*
G36*
X274406Y46168D02*
X271248D01*
Y43011D01*
X274406D01*
Y46168D01*
D02*
G37*
G36*
X221000Y48035D02*
X219956Y47897D01*
X218983Y47494D01*
X218147Y46853D01*
X217506Y46017D01*
X217103Y45044D01*
X216966Y44000D01*
X217103Y42956D01*
X217506Y41983D01*
X218147Y41147D01*
X218983Y40506D01*
X219956Y40103D01*
X221000Y39966D01*
X222044Y40103D01*
X223017Y40506D01*
X223853Y41147D01*
X224494Y41983D01*
X224897Y42956D01*
X225034Y44000D01*
X224897Y45044D01*
X224494Y46017D01*
X223853Y46853D01*
X223017Y47494D01*
X222044Y47897D01*
X221000Y48035D01*
D02*
G37*
G36*
X278563Y42011D02*
X275406D01*
Y38853D01*
X278563D01*
Y42011D01*
D02*
G37*
G36*
X274406D02*
X271248D01*
Y38853D01*
X274406D01*
Y42011D01*
D02*
G37*
G36*
X48419Y37458D02*
X47280Y37368D01*
X45680Y36984D01*
X44161Y36355D01*
X42759Y35495D01*
X41508Y34427D01*
X40440Y33177D01*
X39580Y31774D01*
X38951Y30255D01*
X38567Y28656D01*
X38477Y27516D01*
X48419D01*
Y37458D01*
D02*
G37*
G36*
X329119Y32319D02*
X328075Y32182D01*
X327102Y31779D01*
X326266Y31138D01*
X325625Y30302D01*
X325222Y29329D01*
X325084Y28285D01*
X325222Y27241D01*
X325625Y26267D01*
X326266Y25432D01*
X327102Y24791D01*
X328075Y24388D01*
X329119Y24250D01*
X330163Y24388D01*
X331136Y24791D01*
X331972Y25432D01*
X332613Y26267D01*
X333016Y27241D01*
X333154Y28285D01*
X333016Y29329D01*
X332613Y30302D01*
X331972Y31138D01*
X331136Y31779D01*
X330163Y32182D01*
X329119Y32319D01*
D02*
G37*
G36*
X25602Y38644D02*
X23962Y38515D01*
X22363Y38131D01*
X20843Y37501D01*
X19441Y36642D01*
X18190Y35574D01*
X17122Y34323D01*
X16263Y32921D01*
X15633Y31401D01*
X15249Y29802D01*
X15121Y28162D01*
X15249Y26523D01*
X15633Y24924D01*
X16263Y23404D01*
X17122Y22002D01*
X18190Y20751D01*
X19441Y19683D01*
X20843Y18824D01*
X22363Y18194D01*
X23962Y17810D01*
X25602Y17681D01*
X27241Y17810D01*
X28840Y18194D01*
X30360Y18824D01*
X31762Y19683D01*
X33013Y20751D01*
X34081Y22002D01*
X34940Y23404D01*
X35570Y24924D01*
X35954Y26523D01*
X36083Y28162D01*
X35954Y29802D01*
X35570Y31401D01*
X34940Y32921D01*
X34081Y34323D01*
X33013Y35574D01*
X31762Y36642D01*
X30360Y37501D01*
X28840Y38131D01*
X27241Y38515D01*
X25602Y38644D01*
D02*
G37*
G36*
X316491Y26516D02*
X306549D01*
Y16574D01*
X307689Y16664D01*
X309288Y17048D01*
X310807Y17677D01*
X312210Y18537D01*
X313460Y19605D01*
X314529Y20855D01*
X315388Y22258D01*
X316017Y23777D01*
X316401Y25376D01*
X316491Y26516D01*
D02*
G37*
G36*
X59361D02*
X49419D01*
Y16574D01*
X50559Y16664D01*
X52158Y17048D01*
X53677Y17677D01*
X55080Y18537D01*
X56331Y19605D01*
X57399Y20855D01*
X58258Y22258D01*
X58887Y23777D01*
X59271Y25376D01*
X59361Y26516D01*
D02*
G37*
G36*
X48419D02*
X38477D01*
X38567Y25376D01*
X38951Y23777D01*
X39580Y22258D01*
X40440Y20855D01*
X41508Y19605D01*
X42759Y18537D01*
X44161Y17677D01*
X45680Y17048D01*
X47280Y16664D01*
X48419Y16574D01*
Y26516D01*
D02*
G37*
G36*
X305549D02*
X295607D01*
X295697Y25376D01*
X296081Y23777D01*
X296710Y22258D01*
X297570Y20855D01*
X298638Y19605D01*
X299888Y18537D01*
X301291Y17677D01*
X302810Y17048D01*
X304410Y16664D01*
X305549Y16574D01*
Y26516D01*
D02*
G37*
G36*
X72276Y10848D02*
X69118D01*
Y7691D01*
X72276D01*
Y10848D01*
D02*
G37*
G36*
X68118D02*
X64961D01*
Y7691D01*
X68118D01*
Y10848D01*
D02*
G37*
%LPD*%
D11*
X330325Y0D02*
G03*
X350065Y19739I0J19739D01*
G01*
X350064Y177977D02*
G03*
X330009Y198033I-20056J0D01*
G01*
X17619Y198033D02*
G03*
X0Y180413I0J-17619D01*
G01*
Y17716D02*
G03*
X17717Y0I17716J-0D01*
G01*
X350065Y177977D02*
X350065Y19739D01*
X17620Y198033D02*
X330009Y198033D01*
X0Y17717D02*
Y180413D01*
X17717Y0D02*
X330325D01*
D41*
X187649Y177892D02*
X189699Y175842D01*
X165093Y177892D02*
X187649D01*
X127200Y140000D02*
X165093Y177892D01*
X189699Y167956D02*
Y175842D01*
X185690Y163947D02*
X189699Y167956D01*
X37502Y93077D02*
X48243D01*
X50000Y91320D01*
Y81100D02*
Y91320D01*
X41511Y117156D02*
X120227D01*
X186532Y129868D02*
X205103D01*
X50000Y81100D02*
X54700Y76400D01*
X73300D01*
X99700Y50000D01*
X141202D01*
X205000Y130000D02*
X205122Y129849D01*
X31192Y77395D02*
X40448Y68139D01*
Y43321D02*
X42205Y41564D01*
X40448Y43321D02*
Y68139D01*
X42205Y41564D02*
X51270D01*
X66482Y32033D02*
X70755D01*
X51270Y41564D02*
X61070Y31763D01*
X81537D02*
X99531Y13769D01*
X66212Y31763D02*
X66482Y32033D01*
X70755D02*
X71025Y31763D01*
X81537D01*
X61070D02*
X66212D01*
X99531Y13769D02*
X183949D01*
X127200Y124129D02*
Y140000D01*
X120227Y117156D02*
X127200Y124129D01*
X234873Y153922D02*
X237582D01*
X226500Y162295D02*
X234873Y153922D01*
X226500Y162295D02*
Y168700D01*
X214800Y180400D02*
X226500Y168700D01*
X185690Y160634D02*
Y163947D01*
Y160634D02*
X186400Y159924D01*
Y146200D02*
Y159924D01*
X189690Y162290D02*
X192710D01*
X205000Y150000D01*
X205700Y172553D02*
Y178500D01*
Y172553D02*
X211980Y166273D01*
X300751Y177594D02*
X310850D01*
X300672Y177674D02*
X300751Y177594D01*
X310850D02*
X318000Y170444D01*
Y107951D02*
Y170444D01*
X205103Y129868D02*
X205122Y129849D01*
X186400Y130000D02*
X186532Y129868D01*
X304049Y94000D02*
X318000Y107951D01*
X248600Y82900D02*
X265200D01*
X276100Y72000D01*
X286900D01*
X292400Y77500D01*
X304049D01*
X161000Y114000D02*
X170000D01*
X171000Y115000D01*
X184300D01*
X189300Y110000D01*
X205000D01*
X304049Y110500D02*
X311600Y118051D01*
Y141801D01*
X290901Y162500D02*
X311600Y141801D01*
X270500Y162500D02*
X290901D01*
X209000Y104000D02*
X221000D01*
X205000Y100000D02*
X209000Y104000D01*
X278756Y125800D02*
X284192Y131236D01*
X238500Y125800D02*
X278756D01*
X232700Y120000D02*
X238500Y125800D01*
X232700Y115700D02*
Y120000D01*
X221000Y104000D02*
X232700Y115700D01*
D42*
X80000Y170667D02*
X120000D01*
X91440Y176060D02*
X94048D01*
X79754Y187746D02*
X91440Y176060D01*
X187500Y124750D02*
X211750D01*
X161506Y182488D02*
X207016D01*
X130000Y150982D02*
X161506Y182488D01*
X207016D02*
X209450Y180053D01*
Y175550D02*
Y180053D01*
X227418Y147582D02*
X243991D01*
X221000Y154000D02*
X227418Y147582D01*
X243991D02*
X246889Y150480D01*
X225800Y138800D02*
X283946D01*
X221000Y134000D02*
X225800Y138800D01*
X283946D02*
X295627Y150480D01*
X211800Y144800D02*
X221000Y154000D01*
X198600Y144800D02*
X211800D01*
X196200Y142400D02*
X198600Y144800D01*
X181400Y142400D02*
X196200D01*
X214000Y34000D02*
X221000D01*
X205000Y25000D02*
X214000Y34000D01*
X306049Y27016D02*
Y38449D01*
X296998Y47500D02*
X306049Y38449D01*
X279895Y47500D02*
X296998D01*
X274906Y42511D02*
X279895Y47500D01*
X246889Y150480D02*
X251870Y145500D01*
X270961D01*
X275942Y150480D01*
X246889D02*
X254200D01*
X263047Y156153D01*
Y162647D01*
X266700Y166300D01*
X305246D01*
X306049Y165497D01*
X132946Y112738D02*
X154208Y134000D01*
X161000D01*
X35263Y125087D02*
X50029D01*
X31192Y121017D02*
X35263Y125087D01*
X209450Y175550D02*
X221000Y164000D01*
X120000Y150982D02*
X130000D01*
X67181Y187746D02*
X79754D01*
X178800Y145000D02*
X181400Y142400D01*
X172000Y145000D02*
X178800D01*
X161000Y134000D02*
X172000Y145000D01*
X211750Y124750D02*
X221000Y134000D01*
X244192Y120440D02*
X262601D01*
X284192Y98849D01*
X80000Y150982D02*
X105895Y125087D01*
X120029D01*
X221000Y34000D02*
X286080D01*
X294591Y42511D01*
X48706Y165497D02*
X74830D01*
X80000Y170667D01*
D43*
X186199Y171199D02*
Y174392D01*
X175000Y160000D02*
X186199Y171199D01*
X150287Y185800D02*
X217616D01*
X148200Y188800D02*
X219700D01*
X135550Y176150D02*
X148200Y188800D01*
X219700D02*
X227400Y181100D01*
X128800Y164313D02*
X150287Y185800D01*
X217616D02*
X230000Y173416D01*
X187500Y120000D02*
X193000Y114500D01*
X206864D01*
X207364Y114000D01*
X221000D01*
X45081Y56121D02*
Y86840D01*
Y56121D02*
X51202Y50000D01*
X247582Y167242D02*
Y183704D01*
X75864Y39000D02*
X170492D01*
X71484Y43380D02*
X75864Y39000D01*
X153288Y43359D02*
X158929Y49000D01*
X80512Y43359D02*
X153288D01*
X167000Y49071D02*
Y62344D01*
X165828Y47899D02*
X167000Y49071D01*
X158929Y49000D02*
X163071D01*
X164172Y47899D02*
X165828D01*
X163071Y49000D02*
X164172Y47899D01*
X171450Y39958D02*
X177342D01*
X180413Y36887D01*
X170492Y39000D02*
X171450Y39958D01*
X57060Y80000D02*
X92800D01*
X56890Y80170D02*
X57060Y80000D01*
X185398Y17269D02*
X192282Y10385D01*
X249585D01*
X182731Y17269D02*
X185398D01*
X175000Y25000D02*
X182731Y17269D01*
X239686Y161242D02*
X250068D01*
X256700Y167874D01*
Y171895D01*
X233610Y167318D02*
X239686Y161242D01*
X242871Y164242D02*
X248825D01*
X253045Y168462D01*
Y188241D01*
X240024Y167089D02*
X242871Y164242D01*
X243045Y188241D02*
X247582Y183704D01*
X236653Y157936D02*
X258136D01*
X230000Y164588D02*
X236653Y157936D01*
X258136D02*
X259700Y159500D01*
Y164895D01*
X283045Y188241D01*
X230000Y164588D02*
Y173416D01*
X256700Y171895D02*
X273045Y188241D01*
X175000Y140000D02*
X179774Y135226D01*
X209146D02*
X210564Y136645D01*
X179774Y135226D02*
X209146D01*
X210564Y136645D02*
X214062D01*
X309113Y181174D02*
X309193Y181094D01*
X300113Y181174D02*
X309113D01*
X293045Y188241D02*
X300113Y181174D01*
X315406Y181094D02*
X321500Y175000D01*
X309193Y181094D02*
X315406D01*
X168387Y27387D02*
X171000Y30000D01*
X140923Y19000D02*
X167215D01*
X168387Y20172D02*
Y27387D01*
X167215Y19000D02*
X168387Y20172D01*
X139241Y20682D02*
X140923Y19000D01*
X170406Y74594D02*
X185406D01*
X194047Y65953D01*
X205000Y55000D01*
X169929Y65273D02*
X184927D01*
X161000Y84000D02*
X170406Y74594D01*
X184927Y65273D02*
X196400Y53800D01*
X180027Y62273D02*
X192300Y50000D01*
X171172Y62273D02*
X180027D01*
X171172Y50000D02*
X180600D01*
X170000Y61102D02*
X171172Y62273D01*
X167000Y62344D02*
X169929Y65273D01*
X170000Y51172D02*
X171172Y50000D01*
X170000Y51172D02*
Y61102D01*
X183900Y84100D02*
X220900D01*
X36922Y103878D02*
X150878D01*
X36101Y104700D02*
X36922Y103878D01*
X150878D02*
X156000Y109000D01*
X111800Y99000D02*
X156000D01*
X171000Y30000D02*
X181300D01*
X183800Y32500D01*
Y46800D01*
X180600Y50000D02*
X183800Y46800D01*
X192300Y50000D02*
X208500D01*
X217500Y59000D01*
X226000D01*
Y69862D01*
X244192Y88054D01*
X156000Y99000D02*
X169100D01*
X156000Y89000D02*
Y99000D01*
Y89000D02*
X168700D01*
X178700Y79000D01*
X226000D01*
Y82130D01*
X236970Y93100D01*
X287600D01*
X294900Y85800D01*
X310000D01*
X321500Y97300D01*
Y175000D01*
X14600Y66447D02*
X20011Y61036D01*
X14600Y66447D02*
Y141400D01*
X19000Y145800D01*
X46100D01*
X56600Y156300D01*
X128800D01*
Y164313D01*
X227400Y181100D02*
X235905D01*
X243045Y188241D01*
X258093Y193194D02*
X263045Y188241D01*
X131920Y193194D02*
X258093D01*
X125426Y186700D02*
X131920Y193194D01*
X125426Y159674D02*
Y186700D01*
X220900Y84100D02*
X221000Y84000D01*
X316354Y51050D02*
X329119Y38285D01*
X259605Y51050D02*
X316354D01*
X244192Y66463D02*
X259605Y51050D01*
X330180Y159378D02*
X342700Y146859D01*
Y90400D02*
Y146859D01*
X321500Y69200D02*
X342700Y90400D01*
X297200Y69200D02*
X321500D01*
X286500Y58500D02*
X297200Y69200D01*
X283300Y58500D02*
X286500D01*
X264542Y77258D02*
X283300Y58500D01*
X244192Y77258D02*
X264542D01*
X175000Y120000D02*
X187500D01*
X271468Y29000D02*
X290180Y10288D01*
X216000Y29000D02*
X271468D01*
X216000Y26047D02*
Y29000D01*
X210000Y20047D02*
X216000Y26047D01*
X200047Y20047D02*
X210000D01*
X200047D02*
Y30047D01*
X205000Y35000D01*
X175000Y55000D02*
X180674D01*
X194047Y41627D01*
Y14047D02*
Y41627D01*
Y14047D02*
X226000D01*
X229000Y17047D01*
X252923D01*
X259585Y10385D01*
X200000Y45000D02*
X205000D01*
X200000Y35453D02*
Y45000D01*
X197047Y32500D02*
X200000Y35453D01*
X197047Y17047D02*
Y32500D01*
Y17047D02*
X222947D01*
X226000Y20100D01*
X270368D01*
X280180Y10288D01*
X180413Y35000D02*
Y36887D01*
X170500Y110000D02*
X175000D01*
X169500Y109000D02*
X170500Y110000D01*
X156000Y109000D02*
X169500D01*
X25600Y104700D02*
X36101D01*
X25600Y66625D02*
Y104700D01*
X20011Y61036D02*
X25600Y66625D01*
X92800Y80000D02*
X111800Y99000D01*
X169100D02*
X170100Y100000D01*
X175000D01*
X60342Y70899D02*
X67764D01*
X58500Y69057D02*
X60342Y70899D01*
X51262Y69057D02*
X58500D01*
X161000Y94000D02*
X166400D01*
X167400Y95000D01*
X212000D01*
X216000Y99000D01*
X234600D01*
X234751Y98849D01*
X244192D01*
D46*
X141202Y50000D02*
D03*
X51202D02*
D03*
X50029Y125087D02*
D03*
X120029D02*
D03*
D47*
X84800Y75000D02*
D03*
X161000Y164000D02*
D03*
X120000Y150982D02*
D03*
X80000D02*
D03*
D48*
X84800Y85000D02*
D03*
Y95000D02*
D03*
X161000Y44000D02*
D03*
Y54000D02*
D03*
Y64000D02*
D03*
Y74000D02*
D03*
Y84000D02*
D03*
Y94000D02*
D03*
Y104000D02*
D03*
Y114000D02*
D03*
Y124000D02*
D03*
Y134000D02*
D03*
Y144000D02*
D03*
Y154000D02*
D03*
X221000Y164000D02*
D03*
X161000Y34000D02*
D03*
Y24000D02*
D03*
X221000Y154000D02*
D03*
Y144000D02*
D03*
Y134000D02*
D03*
Y124000D02*
D03*
Y114000D02*
D03*
Y104000D02*
D03*
Y94000D02*
D03*
Y84000D02*
D03*
Y74000D02*
D03*
Y44000D02*
D03*
Y64000D02*
D03*
Y54000D02*
D03*
Y34000D02*
D03*
Y24000D02*
D03*
X120000Y170667D02*
D03*
X80000D02*
D03*
X329119Y28285D02*
D03*
X330180Y149378D02*
D03*
D49*
X67181Y187746D02*
D03*
X233045Y188241D02*
D03*
X259585Y10385D02*
D03*
X280180Y10288D02*
D03*
X139241Y20682D02*
D03*
X175000Y55000D02*
D03*
D50*
X57181Y187746D02*
D03*
X293045Y188241D02*
D03*
X283045D02*
D03*
X273045D02*
D03*
X263045D02*
D03*
X243045D02*
D03*
X253045D02*
D03*
X249585Y10385D02*
D03*
X290180Y10288D02*
D03*
X129241Y20682D02*
D03*
X175000Y45000D02*
D03*
Y35000D02*
D03*
Y25000D02*
D03*
X205000Y55000D02*
D03*
Y45000D02*
D03*
Y35000D02*
D03*
Y25000D02*
D03*
D51*
X334718Y13782D02*
D03*
X334762Y11805D02*
D03*
X332798Y13782D02*
D03*
X332842Y11805D02*
D03*
X330823D02*
D03*
X330778Y13782D02*
D03*
X328803Y11805D02*
D03*
X328758Y13782D02*
D03*
X334762Y9849D02*
D03*
X332842D02*
D03*
X334762Y7894D02*
D03*
X332842D02*
D03*
X330823Y9849D02*
D03*
Y7894D02*
D03*
X328803Y9849D02*
D03*
Y7894D02*
D03*
X326739Y13782D02*
D03*
X326783Y11805D02*
D03*
X324739Y13782D02*
D03*
X324783Y11805D02*
D03*
X322764D02*
D03*
Y9849D02*
D03*
X320760Y13782D02*
D03*
X322719D02*
D03*
X318740D02*
D03*
X318784Y11805D02*
D03*
X320804D02*
D03*
X318784Y9849D02*
D03*
X326783D02*
D03*
Y7894D02*
D03*
X320804Y9849D02*
D03*
X324783D02*
D03*
X322764Y7894D02*
D03*
X324783D02*
D03*
X320804D02*
D03*
X318784D02*
D03*
X311938Y185827D02*
D03*
X313958D02*
D03*
X317937D02*
D03*
X315918D02*
D03*
X317937Y187783D02*
D03*
X313958D02*
D03*
X319937Y185827D02*
D03*
Y187783D02*
D03*
X311938D02*
D03*
X313958Y189738D02*
D03*
X311938D02*
D03*
X311894Y191715D02*
D03*
X315873D02*
D03*
X313913D02*
D03*
X315918Y187783D02*
D03*
Y189738D02*
D03*
X317937D02*
D03*
X317893Y191715D02*
D03*
X319937Y189738D02*
D03*
X319893Y191715D02*
D03*
X321957Y185827D02*
D03*
Y187783D02*
D03*
X323976Y185827D02*
D03*
Y187783D02*
D03*
X325996Y185827D02*
D03*
X327916D02*
D03*
X325996Y187783D02*
D03*
X327916D02*
D03*
X321912Y191715D02*
D03*
X321957Y189738D02*
D03*
X323932Y191715D02*
D03*
X323976Y189738D02*
D03*
X325996D02*
D03*
X325952Y191715D02*
D03*
X327916Y189738D02*
D03*
X327872Y191715D02*
D03*
X94048Y176060D02*
D03*
X187500Y124750D02*
D03*
X186199Y174392D02*
D03*
X37502Y93077D02*
D03*
X41511Y117156D02*
D03*
X45081Y86840D02*
D03*
X80512Y43359D02*
D03*
X71484Y43380D02*
D03*
X56890Y80170D02*
D03*
X183949Y13769D02*
D03*
X247277Y167318D02*
D03*
X233610D02*
D03*
X240024D02*
D03*
X237582Y153922D02*
D03*
X214062Y136645D02*
D03*
X189690Y162290D02*
D03*
X211980Y166273D02*
D03*
X205700Y178500D02*
D03*
X300672Y177674D02*
D03*
X183900Y84100D02*
D03*
X214800Y180400D02*
D03*
X248600Y82900D02*
D03*
X135550Y176150D02*
D03*
X125426Y159674D02*
D03*
X186400Y130000D02*
D03*
Y146200D02*
D03*
X196400Y53800D02*
D03*
X180413Y35000D02*
D03*
X270500Y162500D02*
D03*
D52*
X48919Y27016D02*
D03*
X306049D02*
D03*
X48706Y165497D02*
D03*
X306049D02*
D03*
X25602Y159344D02*
D03*
Y28162D02*
D03*
D53*
X31192Y131922D02*
D03*
X20011Y126469D02*
D03*
X31192Y121017D02*
D03*
X20011Y115564D02*
D03*
X31192Y110111D02*
D03*
X20011Y104658D02*
D03*
X31192Y99206D02*
D03*
X20011Y93753D02*
D03*
X31192Y88300D02*
D03*
X20011Y82847D02*
D03*
X31192Y77395D02*
D03*
X20011Y71942D02*
D03*
X31192Y66489D02*
D03*
X20011Y61036D02*
D03*
D54*
X31192Y55584D02*
D03*
D55*
X329119Y38285D02*
D03*
X330180Y159378D02*
D03*
D56*
X67764Y95899D02*
D03*
Y70899D02*
D03*
D57*
X175000Y160000D02*
D03*
D58*
Y150000D02*
D03*
Y140000D02*
D03*
Y130000D02*
D03*
Y120000D02*
D03*
Y110000D02*
D03*
Y100000D02*
D03*
Y90000D02*
D03*
X205000Y160000D02*
D03*
Y150000D02*
D03*
Y140000D02*
D03*
Y130000D02*
D03*
Y120000D02*
D03*
Y110000D02*
D03*
Y100000D02*
D03*
Y90000D02*
D03*
D59*
X284192Y98849D02*
D03*
X244192D02*
D03*
X284192Y88054D02*
D03*
X244192D02*
D03*
X284192Y109645D02*
D03*
X244192D02*
D03*
X284192Y120440D02*
D03*
X244192D02*
D03*
X284192Y131236D02*
D03*
X244192D02*
D03*
X284192Y66463D02*
D03*
X244192D02*
D03*
X284192Y77258D02*
D03*
X244192D02*
D03*
D60*
X294591Y42511D02*
D03*
X266574Y150480D02*
D03*
X295627D02*
D03*
X132946Y132423D02*
D03*
X68618Y26876D02*
D03*
D61*
X274906Y42511D02*
D03*
X246889Y150480D02*
D03*
X275942D02*
D03*
D62*
X332790Y60858D02*
D03*
Y127000D02*
D03*
D63*
X304049Y61000D02*
D03*
Y77500D02*
D03*
Y94000D02*
D03*
Y110500D02*
D03*
Y127000D02*
D03*
D64*
X51262Y110238D02*
D03*
D65*
Y69057D02*
D03*
D66*
X132946Y112738D02*
D03*
X68618Y7191D02*
D03*
D67*
X326851Y10659D02*
D03*
X320005Y188592D02*
D03*
M02*
