G04*
G04 #@! TF.GenerationSoftware,Altium Limited,Altium Designer,20.0.13 (296)*
G04*
G04 Layer_Color=32896*
%FSLAX25Y25*%
%MOIN*%
G70*
G01*
G75*
%ADD11C,0.01000*%
%ADD14C,0.00787*%
%ADD15C,0.00500*%
D11*
X37668Y133853D02*
X37001Y133187D01*
Y131854D01*
X37668Y131187D01*
X38334D01*
X39001Y131854D01*
X39667Y131187D01*
X40334D01*
X41000Y131854D01*
Y133187D01*
X40334Y133853D01*
X39667D01*
X39001Y133187D01*
X38334Y133853D01*
X37668D01*
X39001Y133187D02*
Y131854D01*
X42000Y55853D02*
Y54520D01*
Y55187D01*
X38001D01*
X38668Y55853D01*
X14000Y129853D02*
Y128520D01*
Y129187D01*
X10001D01*
X10668Y129853D01*
X10001Y123855D02*
Y126521D01*
X12001D01*
X11334Y125188D01*
Y124521D01*
X12001Y123855D01*
X13333D01*
X14000Y124521D01*
Y125854D01*
X13333Y126521D01*
Y59853D02*
X14000Y59187D01*
Y57854D01*
X13333Y57187D01*
X10668D01*
X10001Y57854D01*
Y59187D01*
X10668Y59853D01*
X11334D01*
X12001Y59187D01*
Y57187D01*
X330325Y0D02*
G03*
X350065Y19739I0J19739D01*
G01*
X350064Y177977D02*
G03*
X330009Y198033I-20056J0D01*
G01*
X17619Y198033D02*
G03*
X0Y180413I0J-17619D01*
G01*
Y17716D02*
G03*
X17717Y0I17716J-0D01*
G01*
X350065Y177977D02*
X350065Y19739D01*
X17620Y198033D02*
X330009Y198033D01*
X0Y17717D02*
Y180413D01*
X17717Y0D02*
X330325D01*
D14*
X14334Y98295D02*
X15041Y98295D01*
X15748Y97588D01*
Y96881D01*
X14334Y95467D01*
X13627D01*
X12921Y96174D01*
X12921Y96881D01*
X11860Y97234D02*
X13274Y98648D01*
Y100062D01*
X11860Y100062D01*
X10446Y98648D01*
X11507Y99708D01*
X12921Y98295D01*
X9740Y99355D02*
X11860Y101476D01*
X8326Y100769D01*
X10446Y102889D01*
X9740Y103596D02*
X7619Y101476D01*
X6205Y102889D01*
X14334Y109350D02*
X15041Y109350D01*
X15748Y108643D01*
Y107937D01*
X14334Y106523D01*
X13627D01*
X12921Y107230D01*
X12921Y107937D01*
X11860Y108290D02*
X13274Y109704D01*
Y111118D01*
X11860Y111118D01*
X10446Y109704D01*
X11507Y110764D01*
X12921Y109350D01*
X9740Y110411D02*
X11860Y112531D01*
X8326Y111825D01*
X10446Y113945D01*
X9740Y114652D02*
X7619Y112531D01*
X8679Y113592D01*
X7265Y115005D01*
X8326Y116066D01*
X6205Y113945D01*
X13981Y62824D02*
X16101Y64945D01*
X15041Y66005D01*
X14334Y66005D01*
X13627Y65298D01*
X13627Y64591D01*
X14688Y63531D01*
X13981Y67066D02*
X11860Y64945D01*
Y66359D01*
X10446Y66359D01*
X12567Y68479D01*
X9740Y67066D02*
X11860Y69186D01*
X10446D01*
X10446Y70600D01*
X8326Y68479D01*
Y72721D02*
X8679Y71660D01*
X8679Y70247D01*
X7972Y69540D01*
X7265D01*
X6559Y70247D01*
Y70953D01*
X6912Y71307D01*
X7619D01*
X8679Y70247D01*
X44465Y66756D02*
X46586Y68877D01*
X45526Y69937D01*
X44819Y69937D01*
X44112Y69231D01*
X44112Y68524D01*
X45172Y67463D01*
X44465Y70998D02*
X42345Y68877D01*
Y70291D01*
X40931Y70291D01*
X43052Y72412D01*
X40224Y70998D02*
X42345Y73118D01*
X40931D01*
X40931Y74532D01*
X38810Y72412D01*
X37043Y74179D02*
X39164Y76299D01*
X39164Y74179D01*
X37750Y75592D01*
X44465Y43298D02*
X46586Y45419D01*
X45526Y46479D01*
X44819Y46479D01*
X44112Y45772D01*
X44112Y45065D01*
X45172Y44005D01*
X44465Y47539D02*
X42345Y45419D01*
Y46832D01*
X40931Y46832D01*
X43052Y48953D01*
X40224Y47539D02*
X42345Y49660D01*
X40931D01*
X40931Y51074D01*
X38810Y48953D01*
X40224Y51780D02*
X38810Y53194D01*
X38457Y52841D01*
Y50013D01*
X38104Y49660D01*
X44465Y56617D02*
X46586Y58737D01*
X45526Y59798D01*
X44819Y59798D01*
X44112Y59091D01*
X44112Y58384D01*
X45172Y57323D01*
X44465Y60858D02*
X42345Y58737D01*
Y60151D01*
X40931Y60151D01*
X43052Y62272D01*
X40224Y60858D02*
X42345Y62979D01*
X40931D01*
X40931Y64392D01*
X38810Y62272D01*
Y66513D02*
X40224Y65099D01*
X39164Y64039D01*
X38810Y65099D01*
X38457Y65453D01*
X37750D01*
X37043Y64746D01*
Y64039D01*
X37750Y63332D01*
X38457D01*
X42433Y115130D02*
X43140Y115130D01*
X43846Y114424D01*
Y113717D01*
X42433Y112303D01*
X41726D01*
X41019Y113010D01*
X41019Y113717D01*
X41726Y114424D01*
X42433Y113717D01*
X39959Y114070D02*
X42079Y116191D01*
X38545Y115484D01*
X40666Y117604D01*
X39959Y118311D02*
X37838Y116191D01*
X36778Y117251D01*
X36778Y117958D01*
X38191Y119372D01*
X38898D01*
X39959Y118311D01*
X42433Y103946D02*
X43140Y103946D01*
X43846Y103239D01*
Y102532D01*
X42433Y101118D01*
X41726D01*
X41019Y101825D01*
X41019Y102532D01*
X41726Y103239D01*
X42433Y102532D01*
X39959Y102885D02*
X42079Y105006D01*
X38545Y104299D01*
X40666Y106420D01*
X39959Y107127D02*
X37838Y105006D01*
X36778Y106067D01*
X36778Y106773D01*
X38191Y108187D01*
X38898D01*
X39959Y107127D01*
X42079Y122732D02*
X44200Y124853D01*
X43140Y125913D01*
X42433Y125913D01*
X41726Y125206D01*
X41726Y124500D01*
X42786Y123439D01*
X42079Y124146D02*
X40666Y124146D01*
X39959Y124853D02*
X41372Y126267D01*
Y127681D01*
X39959Y127681D01*
X38545Y126267D01*
X39605Y127327D01*
X41019Y125913D01*
X39959Y129094D02*
X37838Y126974D01*
Y128387D01*
X36424Y128387D01*
X38545Y130508D01*
X232285Y112345D02*
Y114344D01*
X231286Y115344D01*
X230286Y114344D01*
Y112345D01*
Y113845D01*
X232285D01*
X227287Y115344D02*
X228286Y114844D01*
X229286Y113845D01*
Y112845D01*
X228786Y112345D01*
X227787D01*
X227287Y112845D01*
Y113345D01*
X227787Y113845D01*
X229286D01*
X232285Y102342D02*
Y104341D01*
X231286Y105341D01*
X230286Y104341D01*
Y102342D01*
Y103841D01*
X232285D01*
X227287Y105341D02*
X229286D01*
Y103841D01*
X228286Y104341D01*
X227787D01*
X227287Y103841D01*
Y102841D01*
X227787Y102342D01*
X228786D01*
X229286Y102841D01*
X232285Y72332D02*
Y74331D01*
X231286Y75331D01*
X230286Y74331D01*
Y72332D01*
Y73831D01*
X232285D01*
X227287Y72332D02*
X229286D01*
X227287Y74331D01*
Y74831D01*
X227787Y75331D01*
X228786D01*
X229286Y74831D01*
X231286Y62329D02*
Y64328D01*
X230286Y65328D01*
X229286Y64328D01*
Y62329D01*
Y63828D01*
X231286D01*
X228286Y62329D02*
X227287D01*
X227787D01*
Y65328D01*
X228286Y64828D01*
X233285Y154857D02*
X233785Y155357D01*
X234784D01*
X235284Y154857D01*
Y152858D01*
X234784Y152358D01*
X233785D01*
X233285Y152858D01*
Y153858D01*
X234284D01*
X232285Y152358D02*
Y155357D01*
X230286Y152358D01*
Y155357D01*
X229286D02*
Y152358D01*
X227787D01*
X227287Y152858D01*
Y154857D01*
X227787Y155357D01*
X229286D01*
X235284Y142355D02*
Y145354D01*
X233785D01*
X233285Y144854D01*
Y143854D01*
X233785Y143354D01*
X235284D01*
X234284D02*
X233285Y142355D01*
X230286Y144854D02*
X230786Y145354D01*
X231785D01*
X232285Y144854D01*
Y144354D01*
X231785Y143854D01*
X230786D01*
X230286Y143354D01*
Y142854D01*
X230786Y142355D01*
X231785D01*
X232285Y142854D01*
X229286Y145354D02*
X227287D01*
X228286D01*
Y142355D01*
X235284Y34818D02*
X234784Y35318D01*
X233785D01*
X233285Y34818D01*
Y34318D01*
X233785Y33818D01*
X234284D01*
X233785D01*
X233285Y33319D01*
Y32819D01*
X233785Y32319D01*
X234784D01*
X235284Y32819D01*
X232285Y35318D02*
Y33319D01*
X231285Y32319D01*
X230286Y33319D01*
Y35318D01*
X229286Y34818D02*
X228786Y35318D01*
X227787D01*
X227287Y34818D01*
Y34318D01*
X227787Y33818D01*
X228286D01*
X227787D01*
X227287Y33319D01*
Y32819D01*
X227787Y32319D01*
X228786D01*
X229286Y32819D01*
X234784Y25315D02*
Y22316D01*
X233285D01*
X232785Y22816D01*
Y24815D01*
X233285Y25315D01*
X234784D01*
X231785Y22316D02*
X230786D01*
X231285D01*
Y25315D01*
X231785Y24815D01*
X229286D02*
X228786Y25315D01*
X227787D01*
X227287Y24815D01*
Y24315D01*
X227787Y23815D01*
X228286D01*
X227787D01*
X227287Y23315D01*
Y22816D01*
X227787Y22316D01*
X228786D01*
X229286Y22816D01*
X230286Y135351D02*
X232285D01*
Y133851D01*
X231286Y134351D01*
X230786D01*
X230286Y133851D01*
Y132851D01*
X230786Y132352D01*
X231785D01*
X232285Y132851D01*
X229286Y135351D02*
Y133351D01*
X228286Y132352D01*
X227287Y133351D01*
Y135351D01*
X232285Y122348D02*
Y124348D01*
X231286Y125347D01*
X230286Y124348D01*
Y122348D01*
Y123848D01*
X232285D01*
X229286Y125347D02*
X227287D01*
Y124847D01*
X229286Y122848D01*
Y122348D01*
X232285Y92338D02*
Y94338D01*
X231286Y95337D01*
X230286Y94338D01*
Y92338D01*
Y93838D01*
X232285D01*
X227787Y92338D02*
Y95337D01*
X229286Y93838D01*
X227287D01*
X232285Y82335D02*
Y84334D01*
X231286Y85334D01*
X230286Y84334D01*
Y82335D01*
Y83835D01*
X232285D01*
X229286Y84834D02*
X228786Y85334D01*
X227787D01*
X227287Y84834D01*
Y84334D01*
X227787Y83835D01*
X228286D01*
X227787D01*
X227287Y83335D01*
Y82835D01*
X227787Y82335D01*
X228786D01*
X229286Y82835D01*
X232285Y52325D02*
Y54325D01*
X231286Y55324D01*
X230286Y54325D01*
Y52325D01*
Y53825D01*
X232285D01*
X229286Y54825D02*
X228786Y55324D01*
X227787D01*
X227287Y54825D01*
Y52825D01*
X227787Y52325D01*
X228786D01*
X229286Y52825D01*
Y54825D01*
X234785Y165286D02*
Y163287D01*
X233785Y162287D01*
X232786Y163287D01*
Y165286D01*
X231786D02*
X230786D01*
X231286D01*
Y162287D01*
X231786D01*
X230786D01*
X229287D02*
Y165286D01*
X227287Y162287D01*
Y165286D01*
X235284Y42322D02*
Y45321D01*
X233785D01*
X233285Y44821D01*
Y43822D01*
X233785Y43322D01*
X235284D01*
X234284D02*
X233285Y42322D01*
X230286Y45321D02*
X232285D01*
Y42322D01*
X230286D01*
X232285Y43822D02*
X231285D01*
X227287Y45321D02*
X229286D01*
Y43822D01*
X228286D01*
X229286D01*
Y42322D01*
X154784Y142355D02*
Y145354D01*
X153285D01*
X152785Y144854D01*
Y143854D01*
X153285Y143354D01*
X154784D01*
X153785D02*
X152785Y142355D01*
X149786Y144854D02*
X150286Y145354D01*
X151285D01*
X151785Y144854D01*
Y144354D01*
X151285Y143854D01*
X150286D01*
X149786Y143354D01*
Y142854D01*
X150286Y142355D01*
X151285D01*
X151785Y142854D01*
X148786Y145354D02*
X146787D01*
X147786D01*
Y142355D01*
X154784Y105341D02*
Y102342D01*
X153285D01*
X152785Y102841D01*
Y104841D01*
X153285Y105341D01*
X154784D01*
X150286Y102342D02*
Y105341D01*
X151785Y103841D01*
X149786D01*
X154784Y65328D02*
Y62329D01*
X153285D01*
X152785Y62828D01*
Y64828D01*
X153285Y65328D01*
X154784D01*
X151785Y64828D02*
X151285Y65328D01*
X150286D01*
X149786Y64828D01*
Y64328D01*
X150286Y63828D01*
X149786Y63328D01*
Y62828D01*
X150286Y62329D01*
X151285D01*
X151785Y62828D01*
Y63328D01*
X151285Y63828D01*
X151785Y64328D01*
Y64828D01*
X151285Y63828D02*
X150286D01*
X154784Y25315D02*
Y22316D01*
X153285D01*
X152785Y22816D01*
Y24815D01*
X153285Y25315D01*
X154784D01*
X151785Y22316D02*
X150785D01*
X151285D01*
Y25315D01*
X151785Y24815D01*
X147287Y22316D02*
X149286D01*
X147287Y24315D01*
Y24815D01*
X147786Y25315D01*
X148786D01*
X149286Y24815D01*
X154784Y165786D02*
Y162787D01*
X153285D01*
X152785Y163287D01*
Y165287D01*
X153285Y165786D01*
X154784D01*
X151785Y162787D02*
X150786D01*
X151285D01*
Y165786D01*
X151785Y165287D01*
X149286Y162787D02*
X147287Y164787D01*
X146287Y165786D02*
X144288D01*
X145287D01*
Y162787D01*
X143288Y165786D02*
X141289Y162787D01*
Y165786D02*
X143288Y162787D01*
X152785Y134851D02*
X153285Y135351D01*
X154284D01*
X154784Y134851D01*
Y132851D01*
X154284Y132351D01*
X153285D01*
X152785Y132851D01*
Y133851D01*
X153785D01*
X151785Y132351D02*
Y135351D01*
X149786Y132351D01*
Y135351D01*
X148786D02*
Y132351D01*
X147287D01*
X146787Y132851D01*
Y134851D01*
X147287Y135351D01*
X148786D01*
X154784Y125347D02*
Y122348D01*
X153285D01*
X152785Y122848D01*
Y124847D01*
X153285Y125347D01*
X154784D01*
X149786Y122348D02*
X151785D01*
X149786Y124347D01*
Y124847D01*
X150286Y125347D01*
X151285D01*
X151785Y124847D01*
X154784Y115344D02*
Y112345D01*
X153285D01*
X152785Y112845D01*
Y114844D01*
X153285Y115344D01*
X154784D01*
X151785Y114844D02*
X151285Y115344D01*
X150286D01*
X149786Y114844D01*
Y114344D01*
X150286Y113844D01*
X150786D01*
X150286D01*
X149786Y113345D01*
Y112845D01*
X150286Y112345D01*
X151285D01*
X151785Y112845D01*
X154784Y95337D02*
Y92338D01*
X153285D01*
X152785Y92838D01*
Y94838D01*
X153285Y95337D01*
X154784D01*
X149786D02*
X151785D01*
Y93838D01*
X150786Y94338D01*
X150286D01*
X149786Y93838D01*
Y92838D01*
X150286Y92338D01*
X151285D01*
X151785Y92838D01*
X154784Y75331D02*
Y72332D01*
X153285D01*
X152785Y72832D01*
Y74831D01*
X153285Y75331D01*
X154784D01*
X151785D02*
X149786D01*
Y74831D01*
X151785Y72832D01*
Y72332D01*
X154784Y85334D02*
Y82335D01*
X153285D01*
X152785Y82835D01*
Y84834D01*
X153285Y85334D01*
X154784D01*
X149786D02*
X150786Y84834D01*
X151785Y83835D01*
Y82835D01*
X151285Y82335D01*
X150286D01*
X149786Y82835D01*
Y83335D01*
X150286Y83835D01*
X151785D01*
X154784Y45321D02*
Y42322D01*
X153285D01*
X152785Y42822D01*
Y44821D01*
X153285Y45321D01*
X154784D01*
X151785Y42322D02*
X150785D01*
X151285D01*
Y45321D01*
X151785Y44821D01*
X149286D02*
X148786Y45321D01*
X147786D01*
X147287Y44821D01*
Y42822D01*
X147786Y42322D01*
X148786D01*
X149286Y42822D01*
Y44821D01*
X154784Y35318D02*
Y32319D01*
X153285D01*
X152785Y32819D01*
Y34818D01*
X153285Y35318D01*
X154784D01*
X151785Y32319D02*
X150786D01*
X151285D01*
Y35318D01*
X151785Y34818D01*
X149286Y32319D02*
X148286D01*
X148786D01*
Y35318D01*
X149286Y34818D01*
X154784Y155787D02*
Y152787D01*
X153285D01*
X152785Y153287D01*
Y155287D01*
X153285Y155787D01*
X154784D01*
X151785Y155287D02*
X151285Y155787D01*
X150286D01*
X149786Y155287D01*
Y153287D01*
X150286Y152787D01*
X151285D01*
X151785Y153287D01*
Y155287D01*
X148786Y152787D02*
X146787Y154787D01*
X145787Y152787D02*
Y155787D01*
X144288D01*
X143788Y155287D01*
Y154287D01*
X144288Y153787D01*
X145787D01*
X144788D02*
X143788Y152787D01*
X142788Y155787D02*
X140789Y152787D01*
Y155787D02*
X142788Y152787D01*
X154784Y55324D02*
Y52325D01*
X153285D01*
X152785Y52825D01*
Y54825D01*
X153285Y55324D01*
X154784D01*
X151785Y52825D02*
X151285Y52325D01*
X150286D01*
X149786Y52825D01*
Y54825D01*
X150286Y55324D01*
X151285D01*
X151785Y54825D01*
Y54325D01*
X151285Y53825D01*
X149786D01*
X47773Y188340D02*
X48273Y188840D01*
X49272D01*
X49772Y188340D01*
Y186341D01*
X49272Y185841D01*
X48273D01*
X47773Y186341D01*
Y187340D01*
X48772D01*
X46773Y185841D02*
Y188840D01*
X44774Y185841D01*
Y188840D01*
X43774D02*
Y185841D01*
X42275D01*
X41775Y186341D01*
Y188340D01*
X42275Y188840D01*
X43774D01*
X82343Y189150D02*
Y187151D01*
X81343Y186151D01*
X80343Y187151D01*
Y189150D01*
X79344D02*
X78344D01*
X78844D01*
Y186151D01*
X79344D01*
X78344D01*
X76844D02*
Y189150D01*
X74845Y186151D01*
Y189150D01*
D15*
X238358Y11880D02*
Y8881D01*
X236859D01*
X236359Y9381D01*
Y11380D01*
X236859Y11880D01*
X238358D01*
X233859Y8881D02*
X234859D01*
X235359Y9381D01*
Y10380D01*
X234859Y10880D01*
X233859D01*
X233360Y10380D01*
Y9880D01*
X235359D01*
X232360Y8881D02*
X230860D01*
X230361Y9381D01*
X230860Y9880D01*
X231860D01*
X232360Y10380D01*
X231860Y10880D01*
X230361D01*
X229361Y8881D02*
X228361D01*
X228861D01*
Y10880D01*
X229361D01*
X225862Y7881D02*
X225362D01*
X224862Y8381D01*
Y10880D01*
X226362D01*
X226862Y10380D01*
Y9381D01*
X226362Y8881D01*
X224862D01*
X223863D02*
Y10880D01*
X222363D01*
X221863Y10380D01*
Y8881D01*
X219364D02*
X220364D01*
X220864Y9381D01*
Y10380D01*
X220364Y10880D01*
X219364D01*
X218864Y10380D01*
Y9880D01*
X220864D01*
X215865Y11880D02*
Y8881D01*
X217365D01*
X217865Y9381D01*
Y10380D01*
X217365Y10880D01*
X215865D01*
X211867Y11880D02*
Y8881D01*
X210367D01*
X209867Y9381D01*
Y9880D01*
Y10380D01*
X210367Y10880D01*
X211867D01*
X208868D02*
Y9381D01*
X208368Y8881D01*
X206868D01*
Y8381D01*
X207368Y7881D01*
X207868D01*
X206868Y8881D02*
Y10880D01*
X202870Y8881D02*
Y11880D01*
X201370D01*
X200870Y11380D01*
Y10380D01*
X201370Y9880D01*
X202870D01*
X201870D02*
X200870Y8881D01*
X199371Y10880D02*
X198371D01*
X197871Y10380D01*
Y8881D01*
X199371D01*
X199871Y9381D01*
X199371Y9880D01*
X197871D01*
X196871Y8881D02*
Y10880D01*
X196372D01*
X195872Y10380D01*
Y8881D01*
Y10380D01*
X195372Y10880D01*
X194872Y10380D01*
Y8881D01*
X190873D02*
Y11880D01*
X189374D01*
X188874Y11380D01*
Y10380D01*
X189374Y9880D01*
X190873D01*
X189874D02*
X188874Y8881D01*
X187375D02*
X186375D01*
X185875Y9381D01*
Y10380D01*
X186375Y10880D01*
X187375D01*
X187874Y10380D01*
Y9381D01*
X187375Y8881D01*
X184875Y11880D02*
Y8881D01*
Y10380D01*
X184376Y10880D01*
X183376D01*
X182876Y10380D01*
Y8881D01*
X181876D02*
X180877D01*
X181377D01*
Y10880D01*
X181876D01*
X178877Y11380D02*
Y10880D01*
X179377D01*
X178377D01*
X178877D01*
Y9381D01*
X178377Y8881D01*
X171880Y11380D02*
X172379Y11880D01*
X173379D01*
X173879Y11380D01*
Y9381D01*
X173379Y8881D01*
X172379D01*
X171880Y9381D01*
Y10380D01*
X172879D01*
X170380Y8381D02*
X169880Y8881D01*
Y9381D01*
X170380D01*
Y8881D01*
X169880D01*
X170380Y8381D01*
X170880Y7881D01*
X162882Y11380D02*
X163382Y11880D01*
X164382D01*
X164882Y11380D01*
Y10880D01*
X164382Y10380D01*
X163382D01*
X162882Y9880D01*
Y9381D01*
X163382Y8881D01*
X164382D01*
X164882Y9381D01*
X161883Y10880D02*
Y9381D01*
X161383Y8881D01*
X159883D01*
Y8381D01*
X160383Y7881D01*
X160883D01*
X159883Y8881D02*
Y10880D01*
X158884Y8881D02*
X157384D01*
X156884Y9381D01*
X157384Y9880D01*
X158384D01*
X158884Y10380D01*
X158384Y10880D01*
X156884D01*
X155385Y11380D02*
Y10880D01*
X155885D01*
X154885D01*
X155385D01*
Y9381D01*
X154885Y8881D01*
X151886D02*
X152886D01*
X153386Y9381D01*
Y10380D01*
X152886Y10880D01*
X151886D01*
X151386Y10380D01*
Y9880D01*
X153386D01*
X150387Y8881D02*
Y10880D01*
X149887D01*
X149387Y10380D01*
Y8881D01*
Y10380D01*
X148887Y10880D01*
X148387Y10380D01*
Y8881D01*
X147388D02*
X145888D01*
X145388Y9381D01*
X145888Y9880D01*
X146888D01*
X147388Y10380D01*
X146888Y10880D01*
X145388D01*
X139390Y11880D02*
X141390D01*
Y8881D01*
X139390D01*
X141390Y10380D02*
X140390D01*
X138390Y8881D02*
Y10880D01*
X136891D01*
X136391Y10380D01*
Y8881D01*
X134392Y7881D02*
X133892D01*
X133392Y8381D01*
Y10880D01*
X134892D01*
X135391Y10380D01*
Y9381D01*
X134892Y8881D01*
X133392D01*
X132392D02*
X131393D01*
X131893D01*
Y10880D01*
X132392D01*
X129893Y8881D02*
Y10880D01*
X128394D01*
X127894Y10380D01*
Y8881D01*
X125395D02*
X126394D01*
X126894Y9381D01*
Y10380D01*
X126394Y10880D01*
X125395D01*
X124895Y10380D01*
Y9880D01*
X126894D01*
X122396Y8881D02*
X123395D01*
X123895Y9381D01*
Y10380D01*
X123395Y10880D01*
X122396D01*
X121896Y10380D01*
Y9880D01*
X123895D01*
X120896Y10880D02*
Y8881D01*
Y9880D01*
X120396Y10380D01*
X119896Y10880D01*
X119397D01*
X117897Y8881D02*
X116897D01*
X117397D01*
Y10880D01*
X117897D01*
X115398Y8881D02*
Y10880D01*
X113898D01*
X113399Y10380D01*
Y8881D01*
X111399Y7881D02*
X110899D01*
X110399Y8381D01*
Y10880D01*
X111899D01*
X112399Y10380D01*
Y9381D01*
X111899Y8881D01*
X110399D01*
X106401Y11880D02*
Y8881D01*
X104901D01*
X104401Y9381D01*
Y11380D01*
X104901Y11880D01*
X106401D01*
X101902Y8881D02*
X102902D01*
X103402Y9381D01*
Y10380D01*
X102902Y10880D01*
X101902D01*
X101402Y10380D01*
Y9880D01*
X103402D01*
X100403Y7881D02*
Y10880D01*
X98903D01*
X98403Y10380D01*
Y9381D01*
X98903Y8881D01*
X100403D01*
X96904Y11380D02*
Y10880D01*
X97404D01*
X96404D01*
X96904D01*
Y9381D01*
X96404Y8881D01*
X94905D02*
Y9381D01*
X94405D01*
Y8881D01*
X94905D01*
X236359Y5581D02*
X236859Y6081D01*
X237858D01*
X238358Y5581D01*
Y3582D01*
X237858Y3082D01*
X236859D01*
X236359Y3582D01*
X234859Y3082D02*
X233859D01*
X233360Y3582D01*
Y4582D01*
X233859Y5082D01*
X234859D01*
X235359Y4582D01*
Y3582D01*
X234859Y3082D01*
X232360D02*
X231360D01*
X231860D01*
Y6081D01*
X232360D01*
X229361Y3082D02*
X228361D01*
X227861Y3582D01*
Y4582D01*
X228361Y5082D01*
X229361D01*
X229861Y4582D01*
Y3582D01*
X229361Y3082D01*
X226862Y5082D02*
Y3082D01*
Y4082D01*
X226362Y4582D01*
X225862Y5082D01*
X225362D01*
X223363D02*
X222363D01*
X221863Y4582D01*
Y3082D01*
X223363D01*
X223863Y3582D01*
X223363Y4082D01*
X221863D01*
X218864Y6081D02*
Y3082D01*
X220364D01*
X220864Y3582D01*
Y4582D01*
X220364Y5082D01*
X218864D01*
X217365Y3082D02*
X216365D01*
X215865Y3582D01*
Y4582D01*
X216365Y5082D01*
X217365D01*
X217865Y4582D01*
Y3582D01*
X217365Y3082D01*
X209867Y5581D02*
X210367Y6081D01*
X211367D01*
X211867Y5581D01*
Y5082D01*
X211367Y4582D01*
X210367D01*
X209867Y4082D01*
Y3582D01*
X210367Y3082D01*
X211367D01*
X211867Y3582D01*
X208368Y5581D02*
Y5082D01*
X208868D01*
X207868D01*
X208368D01*
Y3582D01*
X207868Y3082D01*
X205869Y5082D02*
X204869D01*
X204369Y4582D01*
Y3082D01*
X205869D01*
X206368Y3582D01*
X205869Y4082D01*
X204369D01*
X202870Y5581D02*
Y5082D01*
X203369D01*
X202370D01*
X202870D01*
Y3582D01*
X202370Y3082D01*
X199371D02*
X200370D01*
X200870Y3582D01*
Y4582D01*
X200370Y5082D01*
X199371D01*
X198871Y4582D01*
Y4082D01*
X200870D01*
X194872Y6081D02*
Y3582D01*
X194372Y3082D01*
X193373D01*
X192873Y3582D01*
Y6081D01*
X191873Y3082D02*
Y5082D01*
X190374D01*
X189874Y4582D01*
Y3082D01*
X188874D02*
X187874D01*
X188374D01*
Y5082D01*
X188874D01*
X186375D02*
X185375Y3082D01*
X184376Y5082D01*
X181876Y3082D02*
X182876D01*
X183376Y3582D01*
Y4582D01*
X182876Y5082D01*
X181876D01*
X181377Y4582D01*
Y4082D01*
X183376D01*
X180377Y5082D02*
Y3082D01*
Y4082D01*
X179877Y4582D01*
X179377Y5082D01*
X178877D01*
X177378Y3082D02*
X175878D01*
X175379Y3582D01*
X175878Y4082D01*
X176878D01*
X177378Y4582D01*
X176878Y5082D01*
X175379D01*
X174379Y3082D02*
X173379D01*
X173879D01*
Y5082D01*
X174379D01*
X171380Y5581D02*
Y5082D01*
X171880D01*
X170880D01*
X171380D01*
Y3582D01*
X170880Y3082D01*
X169380Y5082D02*
Y3582D01*
X168881Y3082D01*
X167381D01*
Y2582D01*
X167881Y2083D01*
X168381D01*
X167381Y3082D02*
Y5082D01*
X165882Y2582D02*
X165382Y3082D01*
Y3582D01*
X165882D01*
Y3082D01*
X165382D01*
X165882Y2582D01*
X166381Y2083D01*
X158384Y5581D02*
X158884Y6081D01*
X159883D01*
X160383Y5581D01*
Y5082D01*
X159883Y4582D01*
X158884D01*
X158384Y4082D01*
Y3582D01*
X158884Y3082D01*
X159883D01*
X160383Y3582D01*
X155885Y3082D02*
X156884D01*
X157384Y3582D01*
Y4582D01*
X156884Y5082D01*
X155885D01*
X155385Y4582D01*
Y4082D01*
X157384D01*
X154385Y2083D02*
Y5082D01*
X152886D01*
X152386Y4582D01*
Y3582D01*
X152886Y3082D01*
X154385D01*
X150886Y5581D02*
Y5082D01*
X151386D01*
X150387D01*
X150886D01*
Y3582D01*
X150387Y3082D01*
X143889D02*
X145888D01*
X143889Y5082D01*
Y5581D01*
X144388Y6081D01*
X145388D01*
X145888Y5581D01*
X142889D02*
X142389Y6081D01*
X141390D01*
X140890Y5581D01*
Y3582D01*
X141390Y3082D01*
X142389D01*
X142889Y3582D01*
Y5581D01*
X137891Y3082D02*
X139890D01*
X137891Y5082D01*
Y5581D01*
X138390Y6081D01*
X139390D01*
X139890Y5581D01*
X136891D02*
X136391Y6081D01*
X135391D01*
X134892Y5581D01*
Y3582D01*
X135391Y3082D01*
X136391D01*
X136891Y3582D01*
Y5581D01*
X140237Y28417D02*
X140571Y28084D01*
Y27418D01*
X140237Y27084D01*
X139904D01*
X139571Y27418D01*
Y28084D01*
X139238Y28417D01*
X138905D01*
X138571Y28084D01*
Y27418D01*
X138905Y27084D01*
X140237Y30417D02*
X140571Y30083D01*
Y29417D01*
X140237Y29084D01*
X138905D01*
X138571Y29417D01*
Y30083D01*
X138905Y30417D01*
X140571Y31083D02*
X138571D01*
Y32416D01*
X129570Y28558D02*
X129903Y28224D01*
Y27558D01*
X129570Y27225D01*
X129237D01*
X128904Y27558D01*
Y28224D01*
X128570Y28558D01*
X128237D01*
X127904Y28224D01*
Y27558D01*
X128237Y27225D01*
X129903Y29224D02*
X127904D01*
Y30224D01*
X128237Y30557D01*
X129570D01*
X129903Y30224D01*
Y29224D01*
X127904Y31223D02*
X129237D01*
X129903Y31890D01*
X129237Y32556D01*
X127904D01*
X128904D01*
Y31223D01*
X333032Y186922D02*
X333532Y186422D01*
Y185422D01*
X333032Y184922D01*
X331032D01*
X330533Y185422D01*
Y186422D01*
X331032Y186922D01*
X332032D01*
Y185922D01*
X330533Y187921D02*
X333532D01*
X330533Y189921D01*
X333532D01*
Y190920D02*
X330533D01*
Y192420D01*
X331032Y192920D01*
X333032D01*
X333532Y192420D01*
Y190920D01*
X313062Y12285D02*
X312562Y12785D01*
Y13785D01*
X313062Y14285D01*
X315061D01*
X315561Y13785D01*
Y12785D01*
X315061Y12285D01*
X314062D01*
Y13285D01*
X315561Y11286D02*
X312562D01*
X315561Y9286D01*
X312562D01*
Y8287D02*
X315561D01*
Y6787D01*
X315061Y6287D01*
X313062D01*
X312562Y6787D01*
Y8287D01*
X320541Y128074D02*
Y125408D01*
X319208Y124075D01*
X317875Y125408D01*
Y128074D01*
X316542D02*
X315210D01*
X315876D01*
Y124075D01*
X316542D01*
X315210D01*
X313210D02*
Y128074D01*
X310544Y124075D01*
Y128074D01*
X323873Y108944D02*
Y112942D01*
X321874D01*
X321207Y112276D01*
Y110943D01*
X321874Y110276D01*
X323873D01*
X319875Y112942D02*
Y108944D01*
X318542Y110276D01*
X317209Y108944D01*
Y112942D01*
X315876Y108944D02*
Y112942D01*
X314543Y111609D01*
X313210Y112942D01*
Y108944D01*
X311877D02*
X310544D01*
X311211D01*
Y112942D01*
X311877Y112276D01*
X325206Y91290D02*
Y95289D01*
X323207D01*
X322540Y94622D01*
Y93290D01*
X323207Y92623D01*
X325206D01*
X321207Y95289D02*
Y91290D01*
X319875Y92623D01*
X318542Y91290D01*
Y95289D01*
X317209Y91290D02*
Y95289D01*
X315876Y93956D01*
X314543Y95289D01*
Y91290D01*
X310544D02*
X313210D01*
X310544Y93956D01*
Y94622D01*
X311211Y95289D01*
X312544D01*
X313210Y94622D01*
X325206Y74898D02*
Y78897D01*
X323207D01*
X322540Y78230D01*
Y76897D01*
X323207Y76231D01*
X325206D01*
X321207Y78897D02*
Y74898D01*
X319875Y76231D01*
X318542Y74898D01*
Y78897D01*
X317209Y74898D02*
Y78897D01*
X315876Y77564D01*
X314543Y78897D01*
Y74898D01*
X313210Y78230D02*
X312544Y78897D01*
X311211D01*
X310544Y78230D01*
Y77564D01*
X311211Y76897D01*
X311877D01*
X311211D01*
X310544Y76231D01*
Y75564D01*
X311211Y74898D01*
X312544D01*
X313210Y75564D01*
X325206Y58735D02*
Y62734D01*
X323207D01*
X322540Y62067D01*
Y60734D01*
X323207Y60068D01*
X325206D01*
X321207Y62734D02*
Y58735D01*
X319875Y60068D01*
X318542Y58735D01*
Y62734D01*
X317209Y58735D02*
Y62734D01*
X315876Y61401D01*
X314543Y62734D01*
Y58735D01*
X311211D02*
Y62734D01*
X313210Y60734D01*
X310544D01*
X120001Y174982D02*
Y177648D01*
Y142982D02*
Y145648D01*
X118668Y144315D02*
X121334D01*
X80001Y174982D02*
Y177648D01*
Y142982D02*
Y145648D01*
X78668Y144315D02*
X81334D01*
X251430Y171599D02*
X254429D01*
Y173099D01*
X253929Y173599D01*
X252929D01*
X252429Y173099D01*
Y171599D01*
X254429Y174599D02*
X251430D01*
X252429Y175598D01*
X251430Y176598D01*
X254429D01*
X251430Y177597D02*
X254429D01*
X253429Y178597D01*
X254429Y179597D01*
X251430D01*
X253929Y180596D02*
X254429Y181096D01*
Y182096D01*
X253929Y182596D01*
X253429D01*
X252929Y182096D01*
Y181596D01*
Y182096D01*
X252429Y182596D01*
X251929D01*
X251430Y182096D01*
Y181096D01*
X251929Y180596D01*
X271214Y170638D02*
X274213D01*
Y172138D01*
X273714Y172638D01*
X272714D01*
X272214Y172138D01*
Y170638D01*
X274213Y173637D02*
X271214D01*
X272214Y174637D01*
X271214Y175637D01*
X274213D01*
X271214Y176637D02*
X274213D01*
X273214Y177636D01*
X274213Y178636D01*
X271214D01*
X274213Y181635D02*
Y179636D01*
X272714D01*
X273214Y180635D01*
Y181135D01*
X272714Y181635D01*
X271714D01*
X271214Y181135D01*
Y180135D01*
X271714Y179636D01*
X231659Y172720D02*
X234658D01*
Y174220D01*
X234158Y174719D01*
X233159D01*
X232659Y174220D01*
Y172720D01*
X234658Y175719D02*
X231659D01*
X232659Y176719D01*
X231659Y177718D01*
X234658D01*
X231659Y178718D02*
X234658D01*
X233659Y179718D01*
X234658Y180718D01*
X231659D01*
Y181717D02*
Y182717D01*
Y182217D01*
X234658D01*
X234158Y181717D01*
X291556Y170987D02*
X294555D01*
Y172487D01*
X294056Y172986D01*
X293056D01*
X292556Y172487D01*
Y170987D01*
X294555Y173986D02*
X291556D01*
X292556Y174986D01*
X291556Y175985D01*
X294555D01*
X291556Y176985D02*
X294555D01*
X293556Y177985D01*
X294555Y178984D01*
X291556D01*
X294555Y179984D02*
Y181983D01*
X294056D01*
X292056Y179984D01*
X291556D01*
X281698Y170547D02*
X284697D01*
Y172047D01*
X284197Y172547D01*
X283198D01*
X282698Y172047D01*
Y170547D01*
X284697Y173546D02*
X281698D01*
X282698Y174546D01*
X281698Y175546D01*
X284697D01*
X281698Y176545D02*
X284697D01*
X283698Y177545D01*
X284697Y178545D01*
X281698D01*
X284697Y181544D02*
X284197Y180544D01*
X283198Y179544D01*
X282198D01*
X281698Y180044D01*
Y181044D01*
X282198Y181544D01*
X282698D01*
X283198Y181044D01*
Y179544D01*
X261385Y171322D02*
X264384D01*
Y172821D01*
X263884Y173321D01*
X262885D01*
X262385Y172821D01*
Y171322D01*
X264384Y174321D02*
X261385D01*
X262385Y175320D01*
X261385Y176320D01*
X264384D01*
X261385Y177320D02*
X264384D01*
X263385Y178320D01*
X264384Y179319D01*
X261385D01*
Y181818D02*
X264384D01*
X262885Y180319D01*
Y182318D01*
X241932Y171752D02*
X244931D01*
Y173251D01*
X244431Y173751D01*
X243432D01*
X242932Y173251D01*
Y171752D01*
X244931Y174751D02*
X241932D01*
X242932Y175751D01*
X241932Y176750D01*
X244931D01*
X241932Y177750D02*
X244931D01*
X243932Y178750D01*
X244931Y179749D01*
X241932D01*
Y182748D02*
Y180749D01*
X243932Y182748D01*
X244431D01*
X244931Y182249D01*
Y181249D01*
X244431Y180749D01*
X280856Y18493D02*
X281190Y18160D01*
Y17493D01*
X280856Y17160D01*
X279523D01*
X279190Y17493D01*
Y18160D01*
X279523Y18493D01*
X279190Y19160D02*
X280523D01*
X281190Y19826D01*
X280523Y20493D01*
X279190D01*
X280190D01*
Y19160D01*
X279190Y21159D02*
X281190D01*
X279190Y22492D01*
X281190D01*
Y23158D02*
X279190D01*
X280190D01*
Y24491D01*
X281190D01*
X279190D01*
X290701Y18707D02*
X291034Y18374D01*
Y17707D01*
X290701Y17374D01*
X289368D01*
X289035Y17707D01*
Y18374D01*
X289368Y18707D01*
X289035Y19374D02*
X290368D01*
X291034Y20040D01*
X290368Y20707D01*
X289035D01*
X290034D01*
Y19374D01*
X289035Y21373D02*
X291034D01*
X289035Y22706D01*
X291034D01*
Y23372D02*
X289035D01*
Y24705D01*
X261082Y16740D02*
Y18073D01*
Y17407D01*
X259083D01*
X261082Y18740D02*
X259083Y20073D01*
X261082D02*
X259083Y18740D01*
X260749Y24071D02*
X261082Y23738D01*
Y23072D01*
X260749Y22738D01*
X259416D01*
X259083Y23072D01*
Y23738D01*
X259416Y24071D01*
X259083Y24738D02*
X260416D01*
X261082Y25404D01*
X260416Y26071D01*
X259083D01*
X260083D01*
Y24738D01*
X259083Y26737D02*
X261082D01*
X259083Y28070D01*
X261082D01*
X248001Y17178D02*
X250001D01*
Y18177D01*
X249667Y18511D01*
X249001D01*
X248668Y18177D01*
Y17178D01*
Y17844D02*
X248001Y18511D01*
X250001Y19177D02*
X248001Y20510D01*
X250001D02*
X248001Y19177D01*
X249667Y24509D02*
X250001Y24175D01*
Y23509D01*
X249667Y23176D01*
X248335D01*
X248001Y23509D01*
Y24175D01*
X248335Y24509D01*
X248001Y25175D02*
X249334D01*
X250001Y25842D01*
X249334Y26508D01*
X248001D01*
X249001D01*
Y25175D01*
X248001Y27174D02*
X250001D01*
X248001Y28507D01*
X250001D01*
M02*
