M48
;Layer_Color=9474304
;FILE_FORMAT=2:5
INCH,LZ
;TYPE=PLATED
T1F00S00C0.01000
T2F00S00C0.03000
T3F00S00C0.03150
T4F00S00C0.03346
T5F00S00C0.03543
T6F00S00C0.03937
T7F00S00C0.04000
T8F00S00C0.04291
T9F00S00C0.04500
T10F00S00C0.04724
T11F00S00C0.07100
T12F00S00C0.11811
T13F00S00C0.12520
%
T01
X0071484Y004338
X0080512Y0043359
X005689Y008017
X0045081Y008684
X0037502Y0093077
X0041511Y0117156
X01875Y012475
X01864Y013
Y01462
X0214062Y0136645
X0237582Y0153922
X02486Y00829
X01839Y00841
X01964Y00538
X0180413Y0035
X0183949Y0013769
X031874Y0013782
X032076
X0322719
X0324739
X0326739
X0328758
X0330778
X0332798
X0334718
X0334762Y0011805
X0332842
Y0009849
X0334762
Y0007894
X0332842
X0330823
Y0009849
Y0011805
X0328803
Y0009849
Y0007894
X0326783
Y0009849
Y0011805
X0324783
Y0009849
Y0007894
X0322764
Y0009849
Y0011805
X0320804
Y0009849
Y0007894
X0318784
Y0009849
Y0011805
X0317937Y0185827
Y0187783
Y0189738
X0319937
Y0187783
Y0185827
X0321957
Y0187783
Y0189738
X0323976
Y0187783
Y0185827
X0325996
X0327916
Y0187783
X0325996
Y0189738
X0327916
X0327872Y0191715
X0325952
X0323932
X0321912
X0319893
X0317893
X0315873
X0313913
X0313958Y0189738
Y0187783
Y0185827
X0315918
Y0187783
Y0189738
X0311938
Y0187783
Y0185827
X0311894Y0191715
X0300672Y0177674
X02705Y01625
X0247277Y0167318
X0240024
X023361
X021198Y0166273
X02148Y01804
X02057Y01785
X0186199Y0174392
X018969Y016229
X0125426Y0159674
X013555Y017615
X0094048Y017606
T02
X0175Y009
Y01
Y011
Y012
Y013
Y014
Y015
X0205
Y014
Y013
Y012
Y011
Y01
Y009
Y016
X0175
T03
X0068618Y0007191
Y0026876
X0132946Y0112738
Y0132423
X0246889Y015048
X0266574
X0275942
X0295627
X0294591Y0042511
X0274906
T04
X0244192Y0066463
Y0077258
Y0088054
Y0098849
Y0109645
Y012044
Y0131236
X0284192
Y012044
Y0109645
Y0098849
Y0088054
Y0077258
Y0066463
T05
X0129241Y0020682
X0139241
X0161Y0024
Y0034
Y0044
Y0054
Y0064
Y0074
Y0084
Y0094
Y0104
Y0114
Y0124
Y0134
Y0144
Y0154
X0221
Y0144
Y0134
Y0124
Y0114
Y0104
Y0094
Y0084
Y0074
Y0064
Y0054
Y0044
Y0034
Y0024
X0205Y0025
Y0035
Y0045
Y0055
X0175
Y0045
Y0035
Y0025
X0249585Y0010385
X0259585
X028018Y0010288
X029018
X0293045Y0188241
X0283045
X0273045
X0263045
X0253045
X0243045
X0233045
X0221Y0164
X0161
X0067181Y0187746
X0057181
T06
X0051202Y005
X0050029Y0125087
X0120029
X0141202Y005
T07
X00848Y0075
Y0085
Y0095
X008Y0150982
X012
X033018Y0149378
X0329119Y0038285
Y0028285
X033018Y0159378
X012Y0170667
X008
T08
X0020011Y0061036
Y0071942
Y0082847
Y0093753
Y0104658
Y0115564
Y0126469
X0031192Y0121017
Y0131922
Y0110111
Y0099206
Y00883
Y0077395
Y0066489
Y0055584
T09
X0067764Y0070899
Y0095899
T10
X0051262Y0069057
Y0110238
T11
X0304049Y0061
Y00775
Y0094
Y01105
Y0127
T12
X033279Y0060858
Y0127
T13
X0025602Y0028162
X0048919Y0027016
X0306049
Y0165497
X0048706
X0025602Y0159344
M30
